%TF.GenerationSoftware,KiCad,Pcbnew,9.0.4*%
%TF.CreationDate,2025-09-21T17:39:53+02:00*%
%TF.ProjectId,Robot WallA,526f626f-7420-4576-916c-6c412e6b6963,rev?*%
%TF.SameCoordinates,Original*%
%TF.FileFunction,Plated,1,4,PTH,Mixed*%
%TF.FilePolarity,Positive*%
%FSLAX46Y46*%
G04 Gerber Fmt 4.6, Leading zero omitted, Abs format (unit mm)*
G04 Created by KiCad (PCBNEW 9.0.4) date 2025-09-21 17:39:53*
%MOMM*%
%LPD*%
G01*
G04 APERTURE LIST*
%TA.AperFunction,ViaDrill*%
%ADD10C,0.350000*%
%TD*%
%TA.AperFunction,ViaDrill*%
%ADD11C,0.500000*%
%TD*%
G04 aperture for slot hole*
%TA.AperFunction,ComponentDrill*%
%ADD12C,0.600000*%
%TD*%
%TA.AperFunction,ComponentDrill*%
%ADD13C,0.650000*%
%TD*%
%TA.AperFunction,ComponentDrill*%
%ADD14C,0.800000*%
%TD*%
%TA.AperFunction,ComponentDrill*%
%ADD15C,0.850000*%
%TD*%
%TA.AperFunction,ComponentDrill*%
%ADD16C,0.900000*%
%TD*%
%TA.AperFunction,ComponentDrill*%
%ADD17C,1.000000*%
%TD*%
%TA.AperFunction,ComponentDrill*%
%ADD18C,1.100000*%
%TD*%
%TA.AperFunction,ComponentDrill*%
%ADD19C,1.110000*%
%TD*%
%TA.AperFunction,ComponentDrill*%
%ADD20C,1.300000*%
%TD*%
%TA.AperFunction,ComponentDrill*%
%ADD21C,1.400000*%
%TD*%
%TA.AperFunction,ComponentDrill*%
%ADD22C,1.600000*%
%TD*%
%TA.AperFunction,ComponentDrill*%
%ADD23C,2.600000*%
%TD*%
%TA.AperFunction,ComponentDrill*%
%ADD24C,3.800000*%
%TD*%
%TA.AperFunction,ComponentDrill*%
%ADD25C,4.300000*%
%TD*%
G04 APERTURE END LIST*
D10*
X58300000Y-52775000D03*
X58300000Y-60850000D03*
X58325000Y-68675000D03*
X58410000Y-104090000D03*
X58625000Y-118650000D03*
X58675000Y-125725000D03*
X58725000Y-111475000D03*
X62650000Y-55400000D03*
X62650000Y-57025000D03*
X62700000Y-54050000D03*
X62750000Y-52725000D03*
X62775000Y-69750000D03*
X62875000Y-61850000D03*
X66580000Y-57680000D03*
X66610000Y-51840000D03*
X66610000Y-56210000D03*
X66640000Y-54610000D03*
X66650000Y-53160000D03*
X69150000Y-46875000D03*
X70300000Y-42150000D03*
X71900000Y-89075000D03*
X71925000Y-92975000D03*
X73150000Y-81575000D03*
X73250000Y-74025000D03*
X73800000Y-93000000D03*
X73925000Y-89100000D03*
X74150000Y-68450000D03*
X74525000Y-58850000D03*
X74675000Y-73900000D03*
X74800000Y-79625000D03*
X75800000Y-92975000D03*
X75850000Y-68450000D03*
X75850000Y-89100000D03*
X77175000Y-72866312D03*
X77250000Y-58800000D03*
X77325000Y-68500000D03*
X77575000Y-89050000D03*
X77600000Y-92975000D03*
X77975000Y-79575000D03*
X78575000Y-72850000D03*
X78850000Y-68500000D03*
X79325000Y-79575000D03*
X79925000Y-58825000D03*
X80175000Y-72850000D03*
X80400000Y-68425000D03*
X81075000Y-60850000D03*
X81125000Y-57825000D03*
X81125000Y-59300000D03*
X81150000Y-73500000D03*
X81175000Y-71975000D03*
X81225000Y-70450000D03*
X84400000Y-121000000D03*
X84400000Y-122000000D03*
X84450000Y-123000000D03*
X84700000Y-111900000D03*
X85125000Y-70525000D03*
X85150000Y-71975000D03*
X85150000Y-73525000D03*
X85250000Y-57725000D03*
X85250000Y-60800000D03*
X85300000Y-59325000D03*
X85502082Y-117351000D03*
X85600000Y-124300000D03*
X85750000Y-113750000D03*
X86400000Y-124300000D03*
X86884054Y-117351000D03*
X87200000Y-124297918D03*
X87780000Y-115210000D03*
X88200000Y-117351000D03*
X88650000Y-107750000D03*
X89500000Y-115850000D03*
X89600000Y-117351000D03*
X89690000Y-112350000D03*
X89775000Y-41900000D03*
X90125000Y-46675000D03*
X90900000Y-117351000D03*
X90950000Y-88350000D03*
X90975000Y-86300000D03*
X91050000Y-82125000D03*
X91920000Y-106490000D03*
X92300000Y-117351000D03*
X92925000Y-111625000D03*
X93300000Y-122850000D03*
X93300000Y-123750000D03*
X93300000Y-124700000D03*
X93470000Y-115140000D03*
X93900000Y-117351000D03*
X94150000Y-44550000D03*
X95100000Y-107550000D03*
X95300000Y-117351000D03*
X96450000Y-109350000D03*
X96720000Y-117351000D03*
X97300000Y-102721000D03*
X98124538Y-117351000D03*
X99025000Y-46950000D03*
X99075000Y-41875000D03*
X99501000Y-124300000D03*
X99589466Y-117357785D03*
X99800000Y-50375000D03*
X99925000Y-57775000D03*
X100350000Y-76725000D03*
X100400000Y-123100000D03*
X100400000Y-123900000D03*
X100425000Y-80675000D03*
X100693220Y-118286926D03*
X100735656Y-119612943D03*
X100800000Y-86475000D03*
X100800000Y-88550000D03*
X100925000Y-82200000D03*
X101500000Y-59825000D03*
X101625000Y-55625000D03*
X102075000Y-78150000D03*
X102100000Y-79800000D03*
X102300000Y-102721000D03*
X102570000Y-120200000D03*
X102925000Y-44425000D03*
X103350000Y-59850000D03*
X103400000Y-55675000D03*
X104459682Y-51815318D03*
X105375000Y-57825000D03*
X105800000Y-94900000D03*
X107275000Y-41850000D03*
X107925000Y-43825000D03*
X111875000Y-45425000D03*
X113600000Y-67875000D03*
X113870000Y-120310000D03*
X113870000Y-127290000D03*
X113890000Y-118250000D03*
X113890000Y-125120000D03*
X113900000Y-122750000D03*
X114650000Y-78275000D03*
X114700000Y-80175000D03*
X115090000Y-117720000D03*
X115150000Y-127940000D03*
X116275000Y-41800000D03*
X116370000Y-119170000D03*
X116380000Y-121490000D03*
X116410000Y-126400000D03*
X116450000Y-123970000D03*
X119055000Y-61360000D03*
X119190000Y-77270000D03*
X119920000Y-66200000D03*
X120130000Y-46200000D03*
X120685000Y-56080000D03*
X122200000Y-73612500D03*
X122200000Y-77600000D03*
X122332500Y-56132500D03*
X122385000Y-82880000D03*
X122460000Y-67590000D03*
X122800000Y-132674000D03*
X123655000Y-63700000D03*
X123685000Y-77580000D03*
X123800000Y-134526000D03*
X124790000Y-70380000D03*
X125240000Y-72270000D03*
X125420000Y-76000000D03*
X125700000Y-56900000D03*
X126593413Y-89906587D03*
X126650000Y-60950000D03*
X126975000Y-53325000D03*
X128200000Y-68525000D03*
X128585000Y-73080000D03*
X128785000Y-82680000D03*
X129150000Y-50650000D03*
X129185000Y-70380000D03*
X129690000Y-90030000D03*
X130200000Y-79700000D03*
X130200000Y-81100000D03*
X130735000Y-83830000D03*
X130900000Y-80400000D03*
X131500000Y-79700000D03*
X131600000Y-81100000D03*
X131950000Y-57675000D03*
X131975000Y-53450000D03*
X132100000Y-67200000D03*
X132647179Y-113050000D03*
X133100000Y-69325000D03*
X133200000Y-73100000D03*
X133300000Y-113625000D03*
X133328046Y-111250000D03*
X133378813Y-110002227D03*
X133383407Y-112425000D03*
X133389901Y-107674000D03*
X133401918Y-108825000D03*
X133500000Y-50125000D03*
X133530778Y-105189000D03*
X133534358Y-106425000D03*
X134000000Y-114200000D03*
X134087305Y-111825000D03*
X134125697Y-110625000D03*
X134171240Y-108250000D03*
X134178750Y-78473750D03*
X134191962Y-109427227D03*
X134200000Y-107000000D03*
X134300000Y-105800000D03*
X134400000Y-79800000D03*
X134600000Y-87000000D03*
X134800000Y-62485000D03*
X134975000Y-60675000D03*
X135000000Y-79100000D03*
X135200000Y-83000000D03*
X135560000Y-86980000D03*
X136800000Y-78200000D03*
X137390000Y-131430000D03*
X137400000Y-75140000D03*
X137500000Y-81200000D03*
X137700000Y-117500000D03*
X138200000Y-115800000D03*
X138300000Y-67620000D03*
X139090000Y-124290000D03*
X139400000Y-116975000D03*
X139470000Y-99130000D03*
X139489413Y-98202587D03*
X139655000Y-63700000D03*
X139670000Y-128500000D03*
X139900000Y-115400000D03*
X140200000Y-80900000D03*
X140350000Y-117025000D03*
X141000000Y-79200000D03*
X141200000Y-115350000D03*
X141200000Y-117026000D03*
X141630000Y-124290000D03*
X142550000Y-115350000D03*
X142800000Y-117500000D03*
X143750000Y-115280000D03*
X143904781Y-94995219D03*
X143970000Y-66330000D03*
X144170000Y-124290000D03*
X144280000Y-47120000D03*
X144300000Y-117600000D03*
X144970000Y-95410000D03*
X145400000Y-117600000D03*
X146230000Y-96370000D03*
X146750000Y-124290000D03*
X146800000Y-117600000D03*
X147800000Y-87800000D03*
X147800000Y-89500000D03*
X148300000Y-69250000D03*
X148500000Y-74000000D03*
X148690000Y-131180000D03*
X149093415Y-106093412D03*
X149100000Y-106900000D03*
X149200000Y-44470000D03*
X149600000Y-83390000D03*
X149690000Y-57660000D03*
X149700000Y-51780000D03*
X149700000Y-85480000D03*
X149710000Y-91900000D03*
X149730000Y-49650000D03*
X149740000Y-82140000D03*
X149770000Y-93710000D03*
X149780000Y-55440000D03*
X149780000Y-80190000D03*
X151605829Y-53500000D03*
X151605829Y-55940000D03*
X151605829Y-58630000D03*
X152200000Y-108300000D03*
X154356587Y-85356587D03*
X154400000Y-79800000D03*
X154400000Y-82700000D03*
X156050000Y-54425000D03*
X156075000Y-57675000D03*
X157875000Y-63500000D03*
X159079751Y-104266000D03*
X159525000Y-63525000D03*
X160000000Y-103300000D03*
X161850000Y-65080000D03*
X162900000Y-106273997D03*
X163000000Y-91630000D03*
X163000000Y-105122997D03*
X163100000Y-107424997D03*
X163100000Y-108225000D03*
X163100000Y-109506587D03*
X163100000Y-110656587D03*
X164060000Y-65020000D03*
X164860000Y-91640000D03*
X166300000Y-44500000D03*
X166800000Y-108225000D03*
X167900000Y-112900000D03*
X168175000Y-47675000D03*
X168520000Y-63380000D03*
X168550000Y-98223000D03*
X168900000Y-111500000D03*
X168926881Y-110673116D03*
X169250000Y-97650000D03*
X169300000Y-106800000D03*
X169686195Y-110925000D03*
X169910000Y-89330000D03*
X170100000Y-97050000D03*
X170437323Y-110350000D03*
X171100000Y-97100000D03*
X171217950Y-110174999D03*
X171256844Y-109375946D03*
X171410000Y-101820000D03*
X171450000Y-43800000D03*
X172056846Y-109375000D03*
X172500000Y-113000000D03*
X172800000Y-100249000D03*
X172811413Y-50257587D03*
X172900000Y-125400000D03*
X173080000Y-121360000D03*
X173225000Y-108200000D03*
X173700000Y-110200000D03*
X173737500Y-101362500D03*
X173750000Y-100250000D03*
X173750000Y-106250000D03*
X173950000Y-43775000D03*
X174400000Y-103700000D03*
X174800000Y-44100000D03*
X174837500Y-116700000D03*
X175650000Y-48700000D03*
X176180000Y-64110000D03*
X176423837Y-126823837D03*
X177160000Y-93440000D03*
X177920000Y-91750000D03*
X177925000Y-133275000D03*
X178035000Y-106897500D03*
X178100000Y-111800000D03*
X178133890Y-106103633D03*
X178200000Y-110900000D03*
X178200000Y-116351000D03*
X178225000Y-115000000D03*
X178278609Y-108295000D03*
X178300000Y-103575000D03*
X178350000Y-50325000D03*
X178425000Y-100174997D03*
X178425000Y-100975000D03*
X178430013Y-102608161D03*
X178450000Y-101775000D03*
X178456587Y-109843413D03*
X178625000Y-118850000D03*
X178640850Y-115683426D03*
X178789437Y-116891894D03*
X178825000Y-104850000D03*
X178975000Y-106272997D03*
X179075000Y-107720000D03*
X179105116Y-109375000D03*
X179137500Y-97800000D03*
X179201000Y-118100000D03*
X179222769Y-112999000D03*
X179319087Y-113930913D03*
X179500000Y-65020000D03*
X179650000Y-44525000D03*
X179894087Y-114725000D03*
X179900000Y-125300000D03*
X179937503Y-97800000D03*
X179975000Y-47850000D03*
X180000000Y-113450000D03*
X180013172Y-99450001D03*
X180100000Y-123700000D03*
X180250000Y-120375000D03*
X180350000Y-75950000D03*
X180400000Y-51700000D03*
X180737500Y-94600000D03*
X180850000Y-97800000D03*
X181070000Y-91870000D03*
X181570000Y-65090000D03*
X181600000Y-128900000D03*
X181700000Y-95200000D03*
X181700000Y-97800000D03*
X181900000Y-127800000D03*
X182137500Y-120500000D03*
X182275000Y-50050000D03*
X182300000Y-129700000D03*
X182700000Y-127200000D03*
X183000000Y-130500000D03*
X183075000Y-54125000D03*
X183100000Y-93460000D03*
X183340000Y-91830000D03*
X183400000Y-126500000D03*
X183737500Y-123700000D03*
X183800672Y-97895342D03*
X184000000Y-125600000D03*
X184000000Y-131300000D03*
X184193216Y-120169828D03*
X184250000Y-52399000D03*
X184500000Y-55450000D03*
X184564033Y-98134684D03*
X185140000Y-65040000D03*
X185200000Y-97649349D03*
X185200000Y-102475000D03*
X185200000Y-130900000D03*
X186100000Y-130200000D03*
X186225000Y-54200000D03*
X186506587Y-120056587D03*
X186737500Y-94600000D03*
X186900000Y-130900000D03*
X187175000Y-120575000D03*
X187190000Y-91770000D03*
X187250000Y-124300000D03*
X187890000Y-124900000D03*
X188000000Y-130400000D03*
X188137500Y-123700000D03*
X188300000Y-125600000D03*
X188549247Y-119959750D03*
X188700000Y-129700000D03*
X189000000Y-126400000D03*
X189000000Y-133625000D03*
X189010000Y-92950000D03*
X189300000Y-98675000D03*
X189320000Y-91790000D03*
X189400000Y-129000000D03*
X189637500Y-120500000D03*
X189700000Y-127100000D03*
X189800000Y-106400000D03*
X190100000Y-128000000D03*
X190225000Y-98750000D03*
X190250000Y-119925000D03*
X190597455Y-106336204D03*
X190637500Y-97800000D03*
X190950000Y-124830000D03*
X191200000Y-119925000D03*
X191246734Y-98318497D03*
X191400000Y-106375000D03*
X191540000Y-91820000D03*
X191700000Y-63490000D03*
X191700000Y-120600000D03*
X192037500Y-123700000D03*
X192042078Y-98404709D03*
X192237500Y-94600000D03*
X192439458Y-120042168D03*
X193636035Y-120738786D03*
X193825000Y-61875000D03*
X194125000Y-46750000D03*
X194309616Y-119925000D03*
X195109619Y-119925000D03*
X195325000Y-68050000D03*
X195975000Y-115250000D03*
X196000000Y-63600000D03*
X196025000Y-119925000D03*
X196050000Y-113450000D03*
X196100000Y-123975000D03*
X196162498Y-97477076D03*
X196270000Y-88930000D03*
X196510000Y-41770000D03*
X196900000Y-70375000D03*
X196900000Y-81600000D03*
X196900000Y-91525000D03*
X197048172Y-119924999D03*
X197150000Y-73475000D03*
X197162429Y-97477143D03*
X197275000Y-76800000D03*
X197593413Y-82175000D03*
X197700000Y-124650000D03*
X198220000Y-42770000D03*
X198220000Y-43670000D03*
X198817158Y-98176000D03*
X198925000Y-89525000D03*
X199450000Y-124800000D03*
X199475000Y-53825000D03*
X199600000Y-98400000D03*
X199750000Y-92580000D03*
X199800000Y-78375000D03*
X199875000Y-133750000D03*
X200000000Y-109064998D03*
X200200000Y-99000000D03*
X200230000Y-73070000D03*
X200607775Y-113620949D03*
X200650000Y-102475000D03*
X200656022Y-110093978D03*
X200710000Y-51280000D03*
X200740000Y-65240000D03*
X200775000Y-49375000D03*
X200780913Y-116105913D03*
X200784574Y-119324670D03*
X200798139Y-117725161D03*
X200801003Y-111800018D03*
X200810065Y-118525074D03*
X200875000Y-114375000D03*
X200878584Y-107845507D03*
X200900000Y-104875000D03*
X200913188Y-107046256D03*
X200972827Y-115296685D03*
X201055354Y-99369927D03*
X201055393Y-100369966D03*
X201055396Y-105870031D03*
X201055401Y-110869974D03*
X201230000Y-95250000D03*
X201275000Y-92025000D03*
X201375000Y-81600000D03*
X201950000Y-82200000D03*
X202400000Y-50600000D03*
X202640000Y-97450000D03*
X203300000Y-120900000D03*
X203370000Y-45072500D03*
X203425000Y-112375000D03*
X203490000Y-71030000D03*
X203620000Y-48087500D03*
X203660000Y-50025000D03*
X203937500Y-101000000D03*
X204287500Y-121250000D03*
X204722508Y-103070334D03*
X204875000Y-102285000D03*
X205100000Y-88300000D03*
X205140000Y-104370000D03*
X205150000Y-106200000D03*
X205150000Y-111325000D03*
X205150000Y-119100000D03*
X205834375Y-128215625D03*
X205920000Y-42770000D03*
X205940000Y-43702500D03*
X206100000Y-108051000D03*
X206320000Y-126730000D03*
X206520000Y-52270000D03*
X206940000Y-115180000D03*
X207200000Y-125550000D03*
X207425000Y-109175000D03*
X207710000Y-41770000D03*
X207900000Y-121250000D03*
X208775000Y-105375000D03*
X210550000Y-134725000D03*
X211025000Y-119100000D03*
X212600000Y-111900000D03*
X216950000Y-129850000D03*
X218575000Y-129850000D03*
X220200000Y-129850000D03*
X221790000Y-129835000D03*
X223430000Y-129850000D03*
D11*
X87150000Y-119000000D03*
X93150000Y-118950000D03*
X95800000Y-94400000D03*
X99150000Y-119000000D03*
X120340000Y-119150000D03*
X120340000Y-123950000D03*
X120340000Y-126350000D03*
X120440000Y-121550000D03*
X151375000Y-99225000D03*
X153300000Y-51200000D03*
X153750000Y-112150000D03*
X155450000Y-95150000D03*
X170600000Y-46500000D03*
X175425000Y-46450000D03*
X213179998Y-125250000D03*
D12*
%TO.C,J8*%
X57400000Y-79999998D02*
X56600000Y-79999998D01*
X57400000Y-98899998D02*
X56600000Y-98899998D01*
D13*
%TO.C,J1*%
X206537500Y-96630000D03*
X206537500Y-97900000D03*
X206537500Y-99170000D03*
X206537500Y-100440000D03*
X206537500Y-101710000D03*
X207807500Y-96630000D03*
X207807500Y-97900000D03*
X207807500Y-99170000D03*
X207807500Y-100440000D03*
X207807500Y-101710000D03*
D14*
%TO.C,J20*%
X172601659Y-136476843D03*
X175101659Y-136476843D03*
X177601659Y-136476843D03*
%TO.C,J19*%
X183401659Y-136476843D03*
X185901659Y-136476843D03*
X188401659Y-136476843D03*
%TO.C,J22*%
X194201659Y-136476843D03*
X196701659Y-136476843D03*
X199201659Y-136476843D03*
%TO.C,J21*%
X205001659Y-136476843D03*
X207501659Y-136476843D03*
X210001659Y-136476843D03*
D15*
%TO.C,C84*%
X153600000Y-42400000D03*
X153600000Y-47400000D03*
%TO.C,C51*%
X190785677Y-53959354D03*
X190785677Y-57459354D03*
%TO.C,C86*%
X192590677Y-80309354D03*
X192590677Y-83809354D03*
D16*
%TO.C,J3*%
X125230000Y-51000000D03*
X127520000Y-51000000D03*
X128520000Y-46180000D03*
X129540000Y-44400000D03*
X130560000Y-46180000D03*
X131580000Y-44400000D03*
X132600000Y-46180000D03*
X133620000Y-44400000D03*
X134640000Y-46180000D03*
X135660000Y-44400000D03*
X136660000Y-51000000D03*
X138950000Y-51000000D03*
%TO.C,J9*%
X188300000Y-41750000D03*
X190300000Y-41750000D03*
%TO.C,J10*%
X211100000Y-41700000D03*
X213100000Y-41700000D03*
D17*
%TO.C,J7*%
X58900000Y-73460000D03*
X58900000Y-76000000D03*
%TO.C,J39*%
X83035000Y-49700000D03*
X85575000Y-49700000D03*
X88115000Y-49700000D03*
%TO.C,J34*%
X102800000Y-48600000D03*
X105340000Y-48600000D03*
X107880000Y-48600000D03*
%TO.C,U6*%
X132750000Y-126480000D03*
%TO.C,J11*%
X133460000Y-92700000D03*
%TO.C,U6*%
X134020000Y-121400000D03*
X135290000Y-126480000D03*
%TO.C,J11*%
X136000000Y-92700000D03*
%TO.C,U6*%
X136560000Y-121400000D03*
X137830000Y-126480000D03*
%TO.C,J23*%
X138940000Y-109450000D03*
%TO.C,U6*%
X139100000Y-121400000D03*
X140370000Y-126480000D03*
%TO.C,J23*%
X141480000Y-109450000D03*
%TO.C,U6*%
X141640000Y-121400000D03*
X142910000Y-126480000D03*
%TO.C,J23*%
X144020000Y-109450000D03*
%TO.C,U6*%
X144180000Y-121400000D03*
X145450000Y-126480000D03*
X146720000Y-121400000D03*
X147990000Y-126480000D03*
X149260000Y-121400000D03*
X150530000Y-126480000D03*
%TO.C,J12*%
X153375000Y-70950000D03*
X155915000Y-70950000D03*
%TO.C,J5*%
X191385000Y-49025000D03*
X193925000Y-49025000D03*
%TO.C,J25*%
X216730000Y-90159998D03*
X216730000Y-92699998D03*
X216730000Y-95239998D03*
%TO.C,J27*%
X216730000Y-98959998D03*
X216730000Y-101499998D03*
X216730000Y-104039998D03*
%TO.C,J29*%
X216730000Y-107819998D03*
X216730000Y-110359998D03*
X216730000Y-112899998D03*
%TO.C,J32*%
X216730000Y-116619998D03*
X216730000Y-119159998D03*
X216730000Y-121699998D03*
D18*
%TO.C,J24*%
X221530000Y-90179998D03*
X221530000Y-92719998D03*
X221530000Y-95259998D03*
%TO.C,J26*%
X221530000Y-99019998D03*
X221530000Y-101559998D03*
X221530000Y-104099998D03*
%TO.C,J28*%
X221530000Y-107879998D03*
X221530000Y-110419998D03*
X221530000Y-112959998D03*
%TO.C,J33*%
X221530000Y-116579998D03*
X221530000Y-119119998D03*
X221530000Y-121659998D03*
D19*
%TO.C,U4*%
X66480000Y-135317500D03*
X71560000Y-135317500D03*
%TO.C,U3*%
X77815000Y-41590000D03*
X77815000Y-46670000D03*
%TO.C,U2*%
X113375000Y-89850000D03*
X113375000Y-94930000D03*
%TO.C,U5*%
X114740000Y-99757500D03*
X119820000Y-99757500D03*
D20*
%TO.C,J16*%
X85625000Y-136480000D03*
X89125000Y-136480000D03*
%TO.C,J15*%
X96775000Y-136480000D03*
X100275000Y-136480000D03*
%TO.C,J30*%
X134250000Y-136480000D03*
X137750000Y-136480000D03*
%TO.C,J31*%
X145400000Y-136480000D03*
X148900000Y-136480000D03*
%TO.C,J17*%
X220400000Y-52400000D03*
X220400000Y-55900000D03*
X220400000Y-59400000D03*
X220400000Y-62900000D03*
%TO.C,J18*%
X220400000Y-70100000D03*
X220400000Y-73600000D03*
X220400000Y-77100000D03*
X220400000Y-80600000D03*
D21*
%TO.C,U8*%
X122775000Y-53725000D03*
X122775000Y-88665000D03*
X141815000Y-72785000D03*
X141815000Y-88665000D03*
X141825000Y-53725000D03*
X141825000Y-69605000D03*
X141825000Y-75965000D03*
%TO.C,U10*%
X161170677Y-44709354D03*
X161170677Y-57409354D03*
%TO.C,U9*%
X162870677Y-71209354D03*
X162870677Y-83909354D03*
%TO.C,U10*%
X170690677Y-57409354D03*
%TO.C,U9*%
X172390677Y-83909354D03*
%TO.C,U10*%
X173870677Y-57409354D03*
%TO.C,U9*%
X175570677Y-83909354D03*
%TO.C,U10*%
X177050677Y-57409354D03*
%TO.C,U9*%
X178750677Y-83909354D03*
%TO.C,U10*%
X183400677Y-44709354D03*
X183400677Y-57409354D03*
%TO.C,U9*%
X185100677Y-71209354D03*
X185100677Y-83909354D03*
D22*
%TO.C,J3*%
X123960000Y-45290000D03*
X140210000Y-45290000D03*
D23*
%TO.C,H5*%
X128940000Y-116050000D03*
X154340000Y-116050000D03*
D24*
%TO.C,J8*%
X66400000Y-84000000D03*
X66400000Y-94899998D03*
D25*
%TO.C,H1*%
X60210000Y-44480000D03*
%TO.C,H2*%
X60210000Y-134480000D03*
%TO.C,H3*%
X220210000Y-44480000D03*
%TO.C,H4*%
X220210000Y-134480000D03*
M02*
