%TF.GenerationSoftware,KiCad,Pcbnew,9.0.4*%
%TF.CreationDate,2025-09-21T10:25:26+02:00*%
%TF.ProjectId,Robot WallA,526f626f-7420-4576-916c-6c412e6b6963,rev?*%
%TF.SameCoordinates,Original*%
%TF.FileFunction,Paste,Bot*%
%TF.FilePolarity,Positive*%
%FSLAX46Y46*%
G04 Gerber Fmt 4.6, Leading zero omitted, Abs format (unit mm)*
G04 Created by KiCad (PCBNEW 9.0.4) date 2025-09-21 10:25:26*
%MOMM*%
%LPD*%
G01*
G04 APERTURE LIST*
G04 Aperture macros list*
%AMRoundRect*
0 Rectangle with rounded corners*
0 $1 Rounding radius*
0 $2 $3 $4 $5 $6 $7 $8 $9 X,Y pos of 4 corners*
0 Add a 4 corners polygon primitive as box body*
4,1,4,$2,$3,$4,$5,$6,$7,$8,$9,$2,$3,0*
0 Add four circle primitives for the rounded corners*
1,1,$1+$1,$2,$3*
1,1,$1+$1,$4,$5*
1,1,$1+$1,$6,$7*
1,1,$1+$1,$8,$9*
0 Add four rect primitives between the rounded corners*
20,1,$1+$1,$2,$3,$4,$5,0*
20,1,$1+$1,$4,$5,$6,$7,0*
20,1,$1+$1,$6,$7,$8,$9,0*
20,1,$1+$1,$8,$9,$2,$3,0*%
G04 Aperture macros list end*
%ADD10R,1.800000X1.200000*%
%ADD11R,1.550000X0.600000*%
%ADD12R,1.200000X1.800000*%
%ADD13R,0.600000X1.550000*%
%ADD14RoundRect,0.237500X-0.237500X0.300000X-0.237500X-0.300000X0.237500X-0.300000X0.237500X0.300000X0*%
%ADD15RoundRect,0.237500X0.300000X0.237500X-0.300000X0.237500X-0.300000X-0.237500X0.300000X-0.237500X0*%
%ADD16RoundRect,0.200000X0.275000X-0.200000X0.275000X0.200000X-0.275000X0.200000X-0.275000X-0.200000X0*%
%ADD17RoundRect,0.200000X-0.200000X-0.275000X0.200000X-0.275000X0.200000X0.275000X-0.200000X0.275000X0*%
%ADD18RoundRect,0.237500X-0.300000X-0.237500X0.300000X-0.237500X0.300000X0.237500X-0.300000X0.237500X0*%
%ADD19RoundRect,0.237500X0.237500X-0.300000X0.237500X0.300000X-0.237500X0.300000X-0.237500X-0.300000X0*%
%ADD20RoundRect,0.200000X-0.275000X0.200000X-0.275000X-0.200000X0.275000X-0.200000X0.275000X0.200000X0*%
%ADD21R,0.800000X1.645000*%
%ADD22R,1.200000X0.400000*%
%ADD23RoundRect,0.237500X-0.044194X-0.380070X0.380070X0.044194X0.044194X0.380070X-0.380070X-0.044194X0*%
%ADD24RoundRect,0.218750X0.256250X-0.218750X0.256250X0.218750X-0.256250X0.218750X-0.256250X-0.218750X0*%
%ADD25RoundRect,0.200000X0.200000X0.275000X-0.200000X0.275000X-0.200000X-0.275000X0.200000X-0.275000X0*%
%ADD26RoundRect,0.250000X0.565685X-0.070711X-0.070711X0.565685X-0.565685X0.070711X0.070711X-0.565685X0*%
%ADD27RoundRect,0.237500X0.250000X0.237500X-0.250000X0.237500X-0.250000X-0.237500X0.250000X-0.237500X0*%
%ADD28RoundRect,0.237500X0.237500X-0.250000X0.237500X0.250000X-0.237500X0.250000X-0.237500X-0.250000X0*%
%ADD29R,0.450000X1.380000*%
%ADD30R,2.375000X1.900000*%
%ADD31R,1.475000X2.100000*%
%ADD32R,1.175000X1.900000*%
%ADD33RoundRect,0.237500X-0.237500X0.250000X-0.237500X-0.250000X0.237500X-0.250000X0.237500X0.250000X0*%
%ADD34RoundRect,0.237500X-0.380070X0.044194X0.044194X-0.380070X0.380070X-0.044194X-0.044194X0.380070X0*%
%ADD35R,0.900000X1.000000*%
%ADD36R,0.600000X1.150000*%
%ADD37R,0.300000X1.150000*%
%ADD38R,1.550000X1.250000*%
%ADD39R,1.550000X1.500000*%
%ADD40RoundRect,0.250000X0.412500X0.650000X-0.412500X0.650000X-0.412500X-0.650000X0.412500X-0.650000X0*%
%ADD41RoundRect,0.237500X0.044194X0.380070X-0.380070X-0.044194X-0.044194X-0.380070X0.380070X0.044194X0*%
%ADD42RoundRect,0.237500X-0.250000X-0.237500X0.250000X-0.237500X0.250000X0.237500X-0.250000X0.237500X0*%
%ADD43RoundRect,0.250000X0.070711X0.565685X-0.565685X-0.070711X-0.070711X-0.565685X0.565685X0.070711X0*%
%ADD44R,0.850000X0.300000*%
%ADD45R,0.300000X0.850000*%
%ADD46R,2.600000X2.600000*%
%ADD47R,1.150000X0.600000*%
%ADD48RoundRect,0.250000X0.650000X-0.412500X0.650000X0.412500X-0.650000X0.412500X-0.650000X-0.412500X0*%
%ADD49R,0.300000X1.450000*%
%ADD50R,1.450000X0.300000*%
G04 APERTURE END LIST*
D10*
%TO.C,J40*%
X57512000Y-66475000D03*
X57512000Y-71075000D03*
D11*
X61388000Y-67775000D03*
X61388000Y-68775000D03*
X61388000Y-69775000D03*
%TD*%
D10*
%TO.C,J42*%
X57537000Y-58575000D03*
X57537000Y-63175000D03*
D11*
X61413000Y-59875000D03*
X61413000Y-60875000D03*
X61413000Y-61875000D03*
%TD*%
D10*
%TO.C,J41*%
X57512000Y-50375000D03*
X57512000Y-54975000D03*
D11*
X61388000Y-51675000D03*
X61388000Y-52675000D03*
X61388000Y-53675000D03*
%TD*%
D12*
%TO.C,J43*%
X72400000Y-41524000D03*
X67800000Y-41524000D03*
D13*
X71100000Y-45400000D03*
X70100000Y-45400000D03*
X69100000Y-45400000D03*
%TD*%
D14*
%TO.C,C128*%
X95150000Y-123162500D03*
X95150000Y-121437500D03*
%TD*%
%TO.C,C98*%
X87200000Y-123062500D03*
X87200000Y-121337500D03*
%TD*%
%TO.C,C96*%
X85610000Y-123062500D03*
X85610000Y-121337500D03*
%TD*%
D15*
%TO.C,C95*%
X100847500Y-121440000D03*
X102572500Y-121440000D03*
%TD*%
D14*
%TO.C,C129*%
X99200000Y-123162500D03*
X99200000Y-121437500D03*
%TD*%
%TO.C,C99*%
X91850000Y-123062500D03*
X91850000Y-121337500D03*
%TD*%
D16*
%TO.C,R17*%
X123485000Y-82905000D03*
X123485000Y-81255000D03*
%TD*%
D17*
%TO.C,R7*%
X132860000Y-66380000D03*
X134510000Y-66380000D03*
%TD*%
D14*
%TO.C,C26*%
X129710000Y-84980000D03*
X129710000Y-86705000D03*
%TD*%
D18*
%TO.C,C130*%
X207537500Y-134700000D03*
X209262500Y-134700000D03*
%TD*%
D14*
%TO.C,C42*%
X82975000Y-54212500D03*
X82975000Y-52487500D03*
%TD*%
D11*
%TO.C,J47*%
X60997000Y-126300000D03*
X60997000Y-125300000D03*
D10*
X57123000Y-127600000D03*
X57123000Y-124000000D03*
%TD*%
D19*
%TO.C,C101*%
X222700000Y-62877500D03*
X222700000Y-61152500D03*
%TD*%
D20*
%TO.C,R24*%
X122255000Y-57535000D03*
X122255000Y-59185000D03*
%TD*%
D21*
%TO.C,T1*%
X136105000Y-64323000D03*
X134835000Y-64323000D03*
X133565000Y-64323000D03*
X132295000Y-64323000D03*
X131025000Y-64323000D03*
X129755000Y-64323000D03*
X128485000Y-64323000D03*
X127215000Y-64323000D03*
X127215000Y-55567000D03*
X128485000Y-55567000D03*
X129755000Y-55567000D03*
X131025000Y-55567000D03*
X132295000Y-55567000D03*
X133565000Y-55567000D03*
X134835000Y-55567000D03*
X136105000Y-55567000D03*
%TD*%
D19*
%TO.C,C103*%
X222900000Y-80562500D03*
X222900000Y-78837500D03*
%TD*%
D18*
%TO.C,C131*%
X196737500Y-134600000D03*
X198462500Y-134600000D03*
%TD*%
D22*
%TO.C,U1*%
X199540000Y-52550000D03*
X199540000Y-51915000D03*
X199540000Y-51280000D03*
X199540000Y-50645000D03*
X199540000Y-50010000D03*
X199540000Y-49375000D03*
X199540000Y-48740000D03*
X199540000Y-48105000D03*
X199540000Y-47470000D03*
X199540000Y-46835000D03*
X204740000Y-46835000D03*
X204740000Y-47470000D03*
X204740000Y-48105000D03*
X204740000Y-48740000D03*
X204740000Y-49375000D03*
X204740000Y-50010000D03*
X204740000Y-50645000D03*
X204740000Y-51280000D03*
X204740000Y-51915000D03*
X204740000Y-52550000D03*
%TD*%
D18*
%TO.C,C7*%
X189175000Y-123700000D03*
X190900000Y-123700000D03*
%TD*%
D23*
%TO.C,C27*%
X138912038Y-83877380D03*
X140131798Y-82657620D03*
%TD*%
D24*
%TO.C,D1*%
X207710000Y-44237500D03*
X207710000Y-42662500D03*
%TD*%
D15*
%TO.C,C6*%
X182700000Y-123700000D03*
X180975000Y-123700000D03*
%TD*%
%TO.C,C116*%
X127947500Y-70380000D03*
X126222500Y-70380000D03*
%TD*%
D14*
%TO.C,C33*%
X206500000Y-49350000D03*
X206500000Y-51075000D03*
%TD*%
D20*
%TO.C,R22*%
X123855000Y-57535000D03*
X123855000Y-59185000D03*
%TD*%
D25*
%TO.C,R4*%
X131410000Y-66355000D03*
X129760000Y-66355000D03*
%TD*%
D18*
%TO.C,C22*%
X180975000Y-125300000D03*
X182700000Y-125300000D03*
%TD*%
D25*
%TO.C,R9*%
X135425000Y-88200000D03*
X133775000Y-88200000D03*
%TD*%
D26*
%TO.C,Y2*%
X137588858Y-82546358D03*
X136033223Y-80990723D03*
X137235304Y-79788642D03*
X138790939Y-81344277D03*
%TD*%
D14*
%TO.C,C115*%
X134485000Y-83980000D03*
X134485000Y-85705000D03*
%TD*%
%TO.C,C30*%
X141855000Y-64597500D03*
X141855000Y-66322500D03*
%TD*%
D18*
%TO.C,C14*%
X197687500Y-94550000D03*
X199412500Y-94550000D03*
%TD*%
D19*
%TO.C,C3*%
X174837500Y-101362500D03*
X174837500Y-99637500D03*
%TD*%
D14*
%TO.C,C4*%
X173600000Y-111337500D03*
X173600000Y-113062500D03*
%TD*%
D27*
%TO.C,R2*%
X175680500Y-51401000D03*
X173855500Y-51401000D03*
%TD*%
D15*
%TO.C,C19*%
X174662500Y-122700000D03*
X172937500Y-122700000D03*
%TD*%
D28*
%TO.C,R29*%
X193320000Y-44182500D03*
X193320000Y-42357500D03*
%TD*%
D24*
%TO.C,D2*%
X196510000Y-44197500D03*
X196510000Y-42622500D03*
%TD*%
D15*
%TO.C,C45*%
X107850000Y-51625000D03*
X106125000Y-51625000D03*
%TD*%
D14*
%TO.C,C35*%
X194920000Y-42407500D03*
X194920000Y-44132500D03*
%TD*%
%TO.C,C43*%
X88150000Y-54137500D03*
X88150000Y-52412500D03*
%TD*%
D20*
%TO.C,R25*%
X120655000Y-57535000D03*
X120655000Y-59185000D03*
%TD*%
D29*
%TO.C,J4*%
X200800000Y-43760000D03*
X201450000Y-43760000D03*
X202100000Y-43760000D03*
X202750000Y-43760000D03*
X203400000Y-43760000D03*
D30*
X199180000Y-41100000D03*
D31*
X199637500Y-43675000D03*
D32*
X201260000Y-41100000D03*
X202940000Y-41100000D03*
D31*
X204562500Y-43675000D03*
D30*
X205020000Y-41090000D03*
%TD*%
D15*
%TO.C,C15*%
X191162500Y-94600000D03*
X189437500Y-94600000D03*
%TD*%
D13*
%TO.C,J37*%
X114800000Y-45267000D03*
X115800000Y-45267000D03*
X116800000Y-45267000D03*
X117800000Y-45267000D03*
D12*
X113500000Y-41392000D03*
X119100000Y-41392000D03*
%TD*%
D19*
%TO.C,C13*%
X203937500Y-99862500D03*
X203937500Y-98137500D03*
%TD*%
D16*
%TO.C,R19*%
X120130000Y-51000000D03*
X120130000Y-49350000D03*
%TD*%
D18*
%TO.C,C106*%
X185937500Y-134600000D03*
X187662500Y-134600000D03*
%TD*%
D33*
%TO.C,R3*%
X169500000Y-47776000D03*
X169500000Y-49601000D03*
%TD*%
D14*
%TO.C,C20*%
X172500000Y-101737500D03*
X172500000Y-103462500D03*
%TD*%
D17*
%TO.C,R5*%
X126660000Y-66380000D03*
X128310000Y-66380000D03*
%TD*%
D18*
%TO.C,C24*%
X134635000Y-76755000D03*
X136360000Y-76755000D03*
%TD*%
D34*
%TO.C,C2*%
X183106413Y-128689116D03*
X184326173Y-129908876D03*
%TD*%
D13*
%TO.C,J36*%
X97000000Y-45267000D03*
X98000000Y-45267000D03*
X99000000Y-45267000D03*
X100000000Y-45267000D03*
D12*
X95700000Y-41392000D03*
X101300000Y-41392000D03*
%TD*%
D35*
%TO.C,SW1*%
X180387500Y-129400000D03*
X180387500Y-131000000D03*
X176287500Y-129400000D03*
X176287500Y-131000000D03*
%TD*%
D14*
%TO.C,C29*%
X121455000Y-64537500D03*
X121455000Y-66262500D03*
%TD*%
D25*
%TO.C,R6*%
X137610000Y-66380000D03*
X135960000Y-66380000D03*
%TD*%
D18*
%TO.C,C8*%
X193175000Y-123700000D03*
X194900000Y-123700000D03*
%TD*%
D19*
%TO.C,C102*%
X218100000Y-62877500D03*
X218100000Y-61152500D03*
%TD*%
D11*
%TO.C,J46*%
X60997000Y-119100000D03*
X60997000Y-118100000D03*
D10*
X57123000Y-120400000D03*
X57123000Y-116800000D03*
%TD*%
D16*
%TO.C,R13*%
X128185000Y-86580000D03*
X128185000Y-84930000D03*
%TD*%
D28*
%TO.C,R27*%
X208050000Y-49112500D03*
X208050000Y-47287500D03*
%TD*%
D14*
%TO.C,C5*%
X174837500Y-117837500D03*
X174837500Y-119562500D03*
%TD*%
D36*
%TO.C,J2*%
X169828000Y-45199000D03*
X170628000Y-45199000D03*
D37*
X171778000Y-45199000D03*
X172778000Y-45199000D03*
X173278000Y-45199000D03*
X174278000Y-45199000D03*
D36*
X176228000Y-45199000D03*
X175428000Y-45199000D03*
D37*
X174778000Y-45199000D03*
X173778000Y-45199000D03*
X172278000Y-45199000D03*
X171278000Y-45199000D03*
D38*
X167933000Y-44549000D03*
X178123000Y-44549000D03*
D39*
X178123000Y-40624000D03*
X167933000Y-40624000D03*
%TD*%
D40*
%TO.C,C31*%
X123617500Y-61360000D03*
X120492500Y-61360000D03*
%TD*%
D20*
%TO.C,R23*%
X139455000Y-57535000D03*
X139455000Y-59185000D03*
%TD*%
D41*
%TO.C,C1*%
X188447380Y-128190120D03*
X187227620Y-129409880D03*
%TD*%
D15*
%TO.C,C17*%
X179700000Y-94600000D03*
X177975000Y-94600000D03*
%TD*%
D11*
%TO.C,J38*%
X60997000Y-104700000D03*
X60997000Y-103700000D03*
D10*
X57123000Y-106000000D03*
X57123000Y-102400000D03*
%TD*%
D16*
%TO.C,R11*%
X131285000Y-86705000D03*
X131285000Y-85055000D03*
%TD*%
D18*
%TO.C,C9*%
X197675000Y-123700000D03*
X199400000Y-123700000D03*
%TD*%
D33*
%TO.C,R28*%
X197840000Y-46817500D03*
X197840000Y-48642500D03*
%TD*%
D13*
%TO.C,J35*%
X105900000Y-45267000D03*
X106900000Y-45267000D03*
X107900000Y-45267000D03*
X108900000Y-45267000D03*
D12*
X104600000Y-41392000D03*
X110200000Y-41392000D03*
%TD*%
D11*
%TO.C,J44*%
X60997000Y-111875000D03*
X60997000Y-110875000D03*
D10*
X57123000Y-113175000D03*
X57123000Y-109575000D03*
%TD*%
D19*
%TO.C,C12*%
X203937500Y-106212500D03*
X203937500Y-104487500D03*
%TD*%
D25*
%TO.C,R8*%
X133725000Y-89900000D03*
X132075000Y-89900000D03*
%TD*%
D15*
%TO.C,C16*%
X185637500Y-94600000D03*
X183912500Y-94600000D03*
%TD*%
D18*
%TO.C,C21*%
X196687500Y-92950000D03*
X198412500Y-92950000D03*
%TD*%
D14*
%TO.C,C18*%
X174837500Y-106537500D03*
X174837500Y-108262500D03*
%TD*%
D42*
%TO.C,FB1*%
X172887500Y-124300000D03*
X174712500Y-124300000D03*
%TD*%
D43*
%TO.C,Y1*%
X187195151Y-127022219D03*
X185639516Y-128577854D03*
X184437435Y-127375773D03*
X185993070Y-125820138D03*
%TD*%
D18*
%TO.C,C107*%
X175037500Y-134600000D03*
X176762500Y-134600000D03*
%TD*%
D16*
%TO.C,R21*%
X145055000Y-49625000D03*
X145055000Y-47975000D03*
%TD*%
D19*
%TO.C,C11*%
X203937500Y-111325000D03*
X203937500Y-109600000D03*
%TD*%
D16*
%TO.C,R14*%
X126585000Y-86580000D03*
X126585000Y-84930000D03*
%TD*%
D44*
%TO.C,U7*%
X132810000Y-79255000D03*
X132810000Y-79755000D03*
X132810000Y-80255000D03*
X132810000Y-80755000D03*
X132810000Y-81255000D03*
X132810000Y-81755000D03*
D45*
X132110000Y-82455000D03*
X131610000Y-82455000D03*
X131110000Y-82455000D03*
X130610000Y-82455000D03*
X130110000Y-82455000D03*
X129610000Y-82455000D03*
D44*
X128910000Y-81755000D03*
X128910000Y-81255000D03*
X128910000Y-80755000D03*
X128910000Y-80255000D03*
X128910000Y-79755000D03*
X128910000Y-79255000D03*
D45*
X129610000Y-78555000D03*
X130110000Y-78555000D03*
X130610000Y-78555000D03*
X131110000Y-78555000D03*
X131610000Y-78555000D03*
X132110000Y-78555000D03*
D46*
X130860000Y-80505000D03*
%TD*%
D15*
%TO.C,C44*%
X102725000Y-51675000D03*
X101000000Y-51675000D03*
%TD*%
D17*
%TO.C,R10*%
X124960000Y-82880000D03*
X126610000Y-82880000D03*
%TD*%
D15*
%TO.C,C40*%
X214387500Y-90200000D03*
X212662500Y-90200000D03*
%TD*%
D34*
%TO.C,C28*%
X138502158Y-78547740D03*
X139721918Y-79767500D03*
%TD*%
D47*
%TO.C,IC3*%
X174368000Y-47751000D03*
X174368000Y-48701000D03*
X174368000Y-49651000D03*
X171768000Y-49651000D03*
X171768000Y-48701000D03*
X171768000Y-47751000D03*
%TD*%
D20*
%TO.C,R20*%
X143455000Y-47975000D03*
X143455000Y-49625000D03*
%TD*%
D19*
%TO.C,C104*%
X217900000Y-80562500D03*
X217900000Y-78837500D03*
%TD*%
D47*
%TO.C,IC4*%
X132085000Y-72130000D03*
X132085000Y-73080000D03*
X132085000Y-74030000D03*
X129485000Y-74030000D03*
X129485000Y-73080000D03*
X129485000Y-72130000D03*
%TD*%
D17*
%TO.C,R15*%
X123360000Y-84480000D03*
X125010000Y-84480000D03*
%TD*%
D14*
%TO.C,C34*%
X197820000Y-51307500D03*
X197820000Y-53032500D03*
%TD*%
D15*
%TO.C,C41*%
X213887500Y-95250000D03*
X212162500Y-95250000D03*
%TD*%
D28*
%TO.C,FB2*%
X122200000Y-76625000D03*
X122200000Y-74800000D03*
%TD*%
D16*
%TO.C,R12*%
X132885000Y-86705000D03*
X132885000Y-85055000D03*
%TD*%
D25*
%TO.C,R16*%
X136322500Y-75167500D03*
X134672500Y-75167500D03*
%TD*%
D17*
%TO.C,R18*%
X124960000Y-81280000D03*
X126610000Y-81280000D03*
%TD*%
D27*
%TO.C,R1*%
X180050000Y-126900000D03*
X178225000Y-126900000D03*
%TD*%
D48*
%TO.C,C23*%
X125303580Y-77603899D03*
X125303580Y-74478899D03*
%TD*%
D19*
%TO.C,C25*%
X127303580Y-77503899D03*
X127303580Y-75778899D03*
%TD*%
D13*
%TO.C,J45*%
X88100000Y-45267000D03*
X89100000Y-45267000D03*
X90100000Y-45267000D03*
X91100000Y-45267000D03*
D12*
X86800000Y-41392000D03*
X92400000Y-41392000D03*
%TD*%
D14*
%TO.C,C32*%
X136085000Y-83980000D03*
X136085000Y-85705000D03*
%TD*%
D49*
%TO.C,IC1*%
X200162500Y-121845000D03*
X199662500Y-121845000D03*
X199162500Y-121845000D03*
X198662500Y-121845000D03*
X198162500Y-121845000D03*
X197662500Y-121845000D03*
X197162500Y-121845000D03*
X196662500Y-121845000D03*
X196162500Y-121845000D03*
X195662500Y-121845000D03*
X195162500Y-121845000D03*
X194662500Y-121845000D03*
X194162500Y-121845000D03*
X193662500Y-121845000D03*
X193162500Y-121845000D03*
X192662500Y-121845000D03*
X192162500Y-121845000D03*
X191662500Y-121845000D03*
X191162500Y-121845000D03*
X190662500Y-121845000D03*
X190162500Y-121845000D03*
X189662500Y-121845000D03*
X189162500Y-121845000D03*
X188662500Y-121845000D03*
X188162500Y-121845000D03*
X187662500Y-121845000D03*
X187162500Y-121845000D03*
X186662500Y-121845000D03*
X186162500Y-121845000D03*
X185662500Y-121845000D03*
X185162500Y-121845000D03*
X184662500Y-121845000D03*
X184162500Y-121845000D03*
X183662500Y-121845000D03*
X183162500Y-121845000D03*
X182662500Y-121845000D03*
X182162500Y-121845000D03*
X181662500Y-121845000D03*
X181162500Y-121845000D03*
X180662500Y-121845000D03*
X180162500Y-121845000D03*
X179662500Y-121845000D03*
X179162500Y-121845000D03*
X178662500Y-121845000D03*
D50*
X176687500Y-119870000D03*
X176687500Y-119370000D03*
X176687500Y-118870000D03*
X176687500Y-118370000D03*
X176687500Y-117870000D03*
X176687500Y-117370000D03*
X176687500Y-116870000D03*
X176687500Y-116370000D03*
X176687500Y-115870000D03*
X176687500Y-115370000D03*
X176687500Y-114870000D03*
X176687500Y-114370000D03*
X176687500Y-113870000D03*
X176687500Y-113370000D03*
X176687500Y-112870000D03*
X176687500Y-112370000D03*
X176687500Y-111870000D03*
X176687500Y-111370000D03*
X176687500Y-110870000D03*
X176687500Y-110370000D03*
X176687500Y-109870000D03*
X176687500Y-109370000D03*
X176687500Y-108870000D03*
X176687500Y-108370000D03*
X176687500Y-107870000D03*
X176687500Y-107370000D03*
X176687500Y-106870000D03*
X176687500Y-106370000D03*
X176687500Y-105870000D03*
X176687500Y-105370000D03*
X176687500Y-104870000D03*
X176687500Y-104370000D03*
X176687500Y-103870000D03*
X176687500Y-103370000D03*
X176687500Y-102870000D03*
X176687500Y-102370000D03*
X176687500Y-101870000D03*
X176687500Y-101370000D03*
X176687500Y-100870000D03*
X176687500Y-100370000D03*
X176687500Y-99870000D03*
X176687500Y-99370000D03*
X176687500Y-98870000D03*
X176687500Y-98370000D03*
D49*
X178662500Y-96395000D03*
X179162500Y-96395000D03*
X179662500Y-96395000D03*
X180162500Y-96395000D03*
X180662500Y-96395000D03*
X181162500Y-96395000D03*
X181662500Y-96395000D03*
X182162500Y-96395000D03*
X182662500Y-96395000D03*
X183162500Y-96395000D03*
X183662500Y-96395000D03*
X184162500Y-96395000D03*
X184662500Y-96395000D03*
X185162500Y-96395000D03*
X185662500Y-96395000D03*
X186162500Y-96395000D03*
X186662500Y-96395000D03*
X187162500Y-96395000D03*
X187662500Y-96395000D03*
X188162500Y-96395000D03*
X188662500Y-96395000D03*
X189162500Y-96395000D03*
X189662500Y-96395000D03*
X190162500Y-96395000D03*
X190662500Y-96395000D03*
X191162500Y-96395000D03*
X191662500Y-96395000D03*
X192162500Y-96395000D03*
X192662500Y-96395000D03*
X193162500Y-96395000D03*
X193662500Y-96395000D03*
X194162500Y-96395000D03*
X194662500Y-96395000D03*
X195162500Y-96395000D03*
X195662500Y-96395000D03*
X196162500Y-96395000D03*
X196662500Y-96395000D03*
X197162500Y-96395000D03*
X197662500Y-96395000D03*
X198162500Y-96395000D03*
X198662500Y-96395000D03*
X199162500Y-96395000D03*
X199662500Y-96395000D03*
X200162500Y-96395000D03*
D50*
X202137500Y-98370000D03*
X202137500Y-98870000D03*
X202137500Y-99370000D03*
X202137500Y-99870000D03*
X202137500Y-100370000D03*
X202137500Y-100870000D03*
X202137500Y-101370000D03*
X202137500Y-101870000D03*
X202137500Y-102370000D03*
X202137500Y-102870000D03*
X202137500Y-103370000D03*
X202137500Y-103870000D03*
X202137500Y-104370000D03*
X202137500Y-104870000D03*
X202137500Y-105370000D03*
X202137500Y-105870000D03*
X202137500Y-106370000D03*
X202137500Y-106870000D03*
X202137500Y-107370000D03*
X202137500Y-107870000D03*
X202137500Y-108370000D03*
X202137500Y-108870000D03*
X202137500Y-109370000D03*
X202137500Y-109870000D03*
X202137500Y-110370000D03*
X202137500Y-110870000D03*
X202137500Y-111370000D03*
X202137500Y-111870000D03*
X202137500Y-112370000D03*
X202137500Y-112870000D03*
X202137500Y-113370000D03*
X202137500Y-113870000D03*
X202137500Y-114370000D03*
X202137500Y-114870000D03*
X202137500Y-115370000D03*
X202137500Y-115870000D03*
X202137500Y-116370000D03*
X202137500Y-116870000D03*
X202137500Y-117370000D03*
X202137500Y-117870000D03*
X202137500Y-118370000D03*
X202137500Y-118870000D03*
X202137500Y-119370000D03*
X202137500Y-119870000D03*
%TD*%
D14*
%TO.C,C10*%
X204050000Y-117837500D03*
X204050000Y-119562500D03*
%TD*%
M02*
