%TF.GenerationSoftware,KiCad,Pcbnew,9.0.4*%
%TF.CreationDate,2025-10-15T19:18:29+02:00*%
%TF.ProjectId,Robot WallA,526f626f-7420-4576-916c-6c412e6b6963,rev?*%
%TF.SameCoordinates,Original*%
%TF.FileFunction,Paste,Top*%
%TF.FilePolarity,Positive*%
%FSLAX46Y46*%
G04 Gerber Fmt 4.6, Leading zero omitted, Abs format (unit mm)*
G04 Created by KiCad (PCBNEW 9.0.4) date 2025-10-15 19:18:29*
%MOMM*%
%LPD*%
G01*
G04 APERTURE LIST*
G04 Aperture macros list*
%AMRoundRect*
0 Rectangle with rounded corners*
0 $1 Rounding radius*
0 $2 $3 $4 $5 $6 $7 $8 $9 X,Y pos of 4 corners*
0 Add a 4 corners polygon primitive as box body*
4,1,4,$2,$3,$4,$5,$6,$7,$8,$9,$2,$3,0*
0 Add four circle primitives for the rounded corners*
1,1,$1+$1,$2,$3*
1,1,$1+$1,$4,$5*
1,1,$1+$1,$6,$7*
1,1,$1+$1,$8,$9*
0 Add four rect primitives between the rounded corners*
20,1,$1+$1,$2,$3,$4,$5,0*
20,1,$1+$1,$4,$5,$6,$7,0*
20,1,$1+$1,$6,$7,$8,$9,0*
20,1,$1+$1,$8,$9,$2,$3,0*%
G04 Aperture macros list end*
%ADD10RoundRect,0.218750X0.256250X-0.218750X0.256250X0.218750X-0.256250X0.218750X-0.256250X-0.218750X0*%
%ADD11RoundRect,0.218750X0.218750X0.256250X-0.218750X0.256250X-0.218750X-0.256250X0.218750X-0.256250X0*%
%ADD12R,0.800000X0.600000*%
%ADD13R,0.700000X1.000000*%
%ADD14RoundRect,0.237500X0.250000X0.237500X-0.250000X0.237500X-0.250000X-0.237500X0.250000X-0.237500X0*%
%ADD15RoundRect,0.237500X-0.237500X0.300000X-0.237500X-0.300000X0.237500X-0.300000X0.237500X0.300000X0*%
%ADD16RoundRect,0.250000X-0.337500X-0.475000X0.337500X-0.475000X0.337500X0.475000X-0.337500X0.475000X0*%
%ADD17RoundRect,0.237500X0.237500X-0.250000X0.237500X0.250000X-0.237500X0.250000X-0.237500X-0.250000X0*%
%ADD18RoundRect,0.250000X-0.375000X-0.625000X0.375000X-0.625000X0.375000X0.625000X-0.375000X0.625000X0*%
%ADD19RoundRect,0.237500X-0.250000X-0.237500X0.250000X-0.237500X0.250000X0.237500X-0.250000X0.237500X0*%
%ADD20R,0.450000X0.950000*%
%ADD21RoundRect,0.250000X0.412500X1.100000X-0.412500X1.100000X-0.412500X-1.100000X0.412500X-1.100000X0*%
%ADD22RoundRect,0.150000X0.150000X-0.587500X0.150000X0.587500X-0.150000X0.587500X-0.150000X-0.587500X0*%
%ADD23RoundRect,0.250000X-1.100000X0.412500X-1.100000X-0.412500X1.100000X-0.412500X1.100000X0.412500X0*%
%ADD24RoundRect,0.225000X0.225000X0.375000X-0.225000X0.375000X-0.225000X-0.375000X0.225000X-0.375000X0*%
%ADD25R,6.650000X2.350000*%
%ADD26R,0.600000X0.800000*%
%ADD27R,1.000000X0.700000*%
%ADD28RoundRect,0.237500X-0.300000X-0.237500X0.300000X-0.237500X0.300000X0.237500X-0.300000X0.237500X0*%
%ADD29RoundRect,0.250000X-0.475000X0.337500X-0.475000X-0.337500X0.475000X-0.337500X0.475000X0.337500X0*%
%ADD30RoundRect,0.237500X-0.237500X0.250000X-0.237500X-0.250000X0.237500X-0.250000X0.237500X0.250000X0*%
%ADD31RoundRect,0.127000X-1.143000X1.208000X-1.143000X-1.208000X1.143000X-1.208000X1.143000X1.208000X0*%
%ADD32RoundRect,0.076200X-0.558800X0.304800X-0.558800X-0.304800X0.558800X-0.304800X0.558800X0.304800X0*%
%ADD33RoundRect,0.250000X-0.412500X-1.100000X0.412500X-1.100000X0.412500X1.100000X-0.412500X1.100000X0*%
%ADD34RoundRect,0.237500X0.237500X-0.300000X0.237500X0.300000X-0.237500X0.300000X-0.237500X-0.300000X0*%
%ADD35RoundRect,0.250000X0.337500X0.475000X-0.337500X0.475000X-0.337500X-0.475000X0.337500X-0.475000X0*%
%ADD36R,3.180000X1.270000*%
%ADD37RoundRect,0.250000X1.100000X-0.412500X1.100000X0.412500X-1.100000X0.412500X-1.100000X-0.412500X0*%
%ADD38R,0.800000X1.750000*%
%ADD39R,0.600000X1.300000*%
%ADD40R,0.435000X1.475000*%
%ADD41R,2.350000X6.650000*%
%ADD42R,3.780000X2.510000*%
%ADD43R,2.510000X3.780000*%
%ADD44C,2.510000*%
%ADD45R,1.200000X0.600000*%
%ADD46RoundRect,0.150000X0.587500X0.150000X-0.587500X0.150000X-0.587500X-0.150000X0.587500X-0.150000X0*%
%ADD47R,2.100000X4.250000*%
%ADD48RoundRect,0.237500X0.300000X0.237500X-0.300000X0.237500X-0.300000X-0.237500X0.300000X-0.237500X0*%
G04 APERTURE END LIST*
D10*
%TO.C,D2*%
X200270000Y-44277500D03*
X200270000Y-42702500D03*
%TD*%
%TO.C,D1*%
X201900000Y-44277500D03*
X201900000Y-42702500D03*
%TD*%
D11*
%TO.C,D6*%
X99237500Y-94275000D03*
X97662500Y-94275000D03*
%TD*%
D12*
%TO.C,RV2*%
X171935677Y-64109354D03*
D13*
X169585677Y-63459354D03*
D12*
X171935677Y-62809354D03*
%TD*%
D10*
%TO.C,D20*%
X221800000Y-125978750D03*
X221800000Y-124403750D03*
%TD*%
D14*
%TO.C,R36*%
X108007500Y-82220477D03*
X106182500Y-82220477D03*
%TD*%
D15*
%TO.C,C73*%
X75098993Y-65557977D03*
X75098993Y-67282977D03*
%TD*%
D14*
%TO.C,R43*%
X87412500Y-108737500D03*
X85587500Y-108737500D03*
%TD*%
D10*
%TO.C,D19*%
X220190000Y-125988750D03*
X220190000Y-124413750D03*
%TD*%
D16*
%TO.C,C65*%
X97312500Y-83115000D03*
X99387500Y-83115000D03*
%TD*%
D17*
%TO.C,R58*%
X221790000Y-129237500D03*
X221790000Y-127412500D03*
%TD*%
D18*
%TO.C,F2*%
X61658993Y-73420477D03*
X64458993Y-73420477D03*
%TD*%
%TO.C,F4*%
X156253177Y-77909354D03*
X159053177Y-77909354D03*
%TD*%
D15*
%TO.C,C123*%
X158190677Y-87184354D03*
X158190677Y-88909354D03*
%TD*%
D10*
%TO.C,D21*%
X223430000Y-125968750D03*
X223430000Y-124393750D03*
%TD*%
D19*
%TO.C,R49*%
X204287500Y-119981250D03*
X206112500Y-119981250D03*
%TD*%
D20*
%TO.C,IC9*%
X206525000Y-128456250D03*
X207175000Y-128456250D03*
X207825000Y-128456250D03*
X208475000Y-128456250D03*
X208475000Y-124506250D03*
X207825000Y-124506250D03*
X207175000Y-124506250D03*
X206525000Y-124506250D03*
%TD*%
D21*
%TO.C,C120*%
X159115677Y-81009354D03*
X155990677Y-81009354D03*
%TD*%
D17*
%TO.C,R56*%
X218570000Y-129237500D03*
X218570000Y-127412500D03*
%TD*%
D15*
%TO.C,C112*%
X140740000Y-112187500D03*
X140740000Y-113912500D03*
%TD*%
D14*
%TO.C,R44*%
X94312500Y-108737500D03*
X92487500Y-108737500D03*
%TD*%
D17*
%TO.C,R41*%
X149300000Y-76912500D03*
X149300000Y-75087500D03*
%TD*%
D12*
%TO.C,RV3*%
X173490677Y-90559354D03*
D13*
X171140677Y-89909354D03*
D12*
X173490677Y-89259354D03*
%TD*%
D11*
%TO.C,D5*%
X201112500Y-83550000D03*
X199537500Y-83550000D03*
%TD*%
D21*
%TO.C,C124*%
X159115677Y-84309354D03*
X155990677Y-84309354D03*
%TD*%
D12*
%TO.C,RV1*%
X114980000Y-61360000D03*
D13*
X112630000Y-60710000D03*
D12*
X114980000Y-60060000D03*
%TD*%
D22*
%TO.C,Q1*%
X165343177Y-62679354D03*
X167243177Y-62679354D03*
X166293177Y-60804354D03*
%TD*%
D23*
%TO.C,C125*%
X163890677Y-87184354D03*
X163890677Y-90309354D03*
%TD*%
D24*
%TO.C,D15*%
X118390000Y-119150000D03*
X115090000Y-119150000D03*
%TD*%
D19*
%TO.C,R38*%
X111682500Y-80135000D03*
X113507500Y-80135000D03*
%TD*%
D17*
%TO.C,R59*%
X223430000Y-129223750D03*
X223430000Y-127398750D03*
%TD*%
D15*
%TO.C,C121*%
X161390677Y-87184354D03*
X161390677Y-88909354D03*
%TD*%
D25*
%TO.C,C62*%
X87775000Y-91100000D03*
X74775000Y-91100000D03*
%TD*%
D26*
%TO.C,RV4*%
X147650000Y-72662500D03*
D27*
X148300000Y-70312500D03*
D26*
X148950000Y-72662500D03*
%TD*%
D23*
%TO.C,C80*%
X75348993Y-77795477D03*
X75348993Y-80920477D03*
%TD*%
D19*
%TO.C,R33*%
X100837500Y-94250000D03*
X102662500Y-94250000D03*
%TD*%
D16*
%TO.C,C66*%
X97312500Y-85375000D03*
X99387500Y-85375000D03*
%TD*%
D14*
%TO.C,R42*%
X87412500Y-110337500D03*
X85587500Y-110337500D03*
%TD*%
D28*
%TO.C,C92*%
X144937500Y-90300000D03*
X146662500Y-90300000D03*
%TD*%
D23*
%TO.C,C52*%
X186185677Y-60496854D03*
X186185677Y-63621854D03*
%TD*%
D24*
%TO.C,D8*%
X168090000Y-118950000D03*
X164790000Y-118950000D03*
%TD*%
D29*
%TO.C,C119*%
X185190677Y-87271854D03*
X185190677Y-89346854D03*
%TD*%
D15*
%TO.C,C122*%
X159800677Y-87184354D03*
X159800677Y-88909354D03*
%TD*%
D30*
%TO.C,R48*%
X204900000Y-127868750D03*
X204900000Y-129693750D03*
%TD*%
D28*
%TO.C,C37*%
X198437500Y-71900000D03*
X200162500Y-71900000D03*
%TD*%
D17*
%TO.C,R34*%
X111845000Y-67510000D03*
X111845000Y-65685000D03*
%TD*%
D31*
%TO.C,D22*%
X196600000Y-52974000D03*
D32*
X196600000Y-55325000D03*
%TD*%
D33*
%TO.C,C117*%
X145037500Y-81200000D03*
X148162500Y-81200000D03*
%TD*%
D34*
%TO.C,C75*%
X76348993Y-75895477D03*
X76348993Y-74170477D03*
%TD*%
D14*
%TO.C,R52*%
X148482500Y-129890000D03*
X146657500Y-129890000D03*
%TD*%
D15*
%TO.C,C111*%
X139140000Y-112187500D03*
X139140000Y-113912500D03*
%TD*%
D35*
%TO.C,C64*%
X94637500Y-87625000D03*
X92562500Y-87625000D03*
%TD*%
D36*
%TO.C,J6*%
X182340000Y-100040000D03*
X182340000Y-102580000D03*
X182340000Y-105120000D03*
X182340000Y-107660000D03*
X182340000Y-110200000D03*
X182340000Y-112740000D03*
X182340000Y-115280000D03*
X182340000Y-117820000D03*
X187800000Y-100040000D03*
X187800000Y-102580000D03*
X187800000Y-105120000D03*
X187800000Y-107660000D03*
X187800000Y-110200000D03*
X187800000Y-112740000D03*
X187800000Y-115280000D03*
X187800000Y-117820000D03*
%TD*%
D37*
%TO.C,C81*%
X73848993Y-75822500D03*
X73848993Y-72697500D03*
%TD*%
D15*
%TO.C,C56*%
X160385677Y-60596854D03*
X160385677Y-62321854D03*
%TD*%
D37*
%TO.C,C77*%
X75598993Y-63482977D03*
X75598993Y-60357977D03*
%TD*%
D15*
%TO.C,C70*%
X79598993Y-65557977D03*
X79598993Y-67282977D03*
%TD*%
D24*
%TO.C,D14*%
X118390000Y-126350000D03*
X115090000Y-126350000D03*
%TD*%
D19*
%TO.C,R51*%
X134327500Y-129910000D03*
X136152500Y-129910000D03*
%TD*%
%TO.C,R30*%
X202712500Y-83525000D03*
X204537500Y-83525000D03*
%TD*%
D33*
%TO.C,C83*%
X145100000Y-50800000D03*
X148225000Y-50800000D03*
%TD*%
D38*
%TO.C,IC2*%
X193705000Y-131675000D03*
X196245000Y-131675000D03*
X198785000Y-131675000D03*
X201325000Y-131675000D03*
X201325000Y-122475000D03*
X198785000Y-122475000D03*
X196245000Y-122475000D03*
X193705000Y-122475000D03*
%TD*%
D15*
%TO.C,C105*%
X204900000Y-124518750D03*
X204900000Y-126243750D03*
%TD*%
D34*
%TO.C,C74*%
X79348993Y-75895477D03*
X79348993Y-74170477D03*
%TD*%
D35*
%TO.C,C67*%
X94637500Y-85375000D03*
X92562500Y-85375000D03*
%TD*%
D19*
%TO.C,R32*%
X170073177Y-60459354D03*
X171898177Y-60459354D03*
%TD*%
D39*
%TO.C,Q4*%
X207850000Y-118281250D03*
X209750000Y-118281250D03*
X208800000Y-116081250D03*
%TD*%
D15*
%TO.C,C71*%
X78098993Y-65557977D03*
X78098993Y-67282977D03*
%TD*%
D19*
%TO.C,R54*%
X172278177Y-86909354D03*
X174103177Y-86909354D03*
%TD*%
D40*
%TO.C,IC8*%
X86482000Y-121325500D03*
X87118000Y-121325500D03*
X87752000Y-121325500D03*
X88388000Y-121325500D03*
X89022000Y-121325500D03*
X89658000Y-121325500D03*
X90292000Y-121325500D03*
X90928000Y-121325500D03*
X91562000Y-121325500D03*
X92198000Y-121325500D03*
X92832000Y-121325500D03*
X93468000Y-121325500D03*
X94102000Y-121325500D03*
X94738000Y-121325500D03*
X95372000Y-121325500D03*
X96008000Y-121325500D03*
X96642000Y-121325500D03*
X97278000Y-121325500D03*
X97912000Y-121325500D03*
X98548000Y-121325500D03*
X99182000Y-121325500D03*
X99818000Y-121325500D03*
X99818000Y-113749500D03*
X99182000Y-113749500D03*
X98548000Y-113749500D03*
X97912000Y-113749500D03*
X97278000Y-113749500D03*
X96642000Y-113749500D03*
X96008000Y-113749500D03*
X95372000Y-113749500D03*
X94738000Y-113749500D03*
X94102000Y-113749500D03*
X93468000Y-113749500D03*
X92832000Y-113749500D03*
X92198000Y-113749500D03*
X91562000Y-113749500D03*
X90928000Y-113749500D03*
X90292000Y-113749500D03*
X89658000Y-113749500D03*
X89022000Y-113749500D03*
X88388000Y-113749500D03*
X87752000Y-113749500D03*
X87118000Y-113749500D03*
X86482000Y-113749500D03*
%TD*%
D19*
%TO.C,R31*%
X201487500Y-56875000D03*
X203312500Y-56875000D03*
%TD*%
D34*
%TO.C,C82*%
X111845000Y-70872500D03*
X111845000Y-69147500D03*
%TD*%
D30*
%TO.C,R37*%
X113595000Y-69097500D03*
X113595000Y-70922500D03*
%TD*%
D41*
%TO.C,C69*%
X64598993Y-67670477D03*
X64598993Y-54670477D03*
%TD*%
D36*
%TO.C,J13*%
X193265000Y-100040000D03*
X193265000Y-102580000D03*
X193265000Y-105120000D03*
X193265000Y-107660000D03*
X193265000Y-110200000D03*
X193265000Y-112740000D03*
X193265000Y-115280000D03*
X193265000Y-117820000D03*
X198725000Y-100040000D03*
X198725000Y-102580000D03*
X198725000Y-105120000D03*
X198725000Y-107660000D03*
X198725000Y-110200000D03*
X198725000Y-112740000D03*
X198725000Y-115280000D03*
X198725000Y-117820000D03*
%TD*%
D19*
%TO.C,R40*%
X165485677Y-64559354D03*
X167310677Y-64559354D03*
%TD*%
D24*
%TO.C,D11*%
X168090000Y-121350000D03*
X164790000Y-121350000D03*
%TD*%
D42*
%TO.C,IC7*%
X99415000Y-78720000D03*
X91825000Y-78720000D03*
D43*
X83175000Y-77100000D03*
X83175000Y-71920000D03*
X83175000Y-64530000D03*
X83175000Y-59350000D03*
D42*
X102595000Y-57760000D03*
D44*
X108065000Y-57760000D03*
X108065000Y-61950000D03*
X108065000Y-66140000D03*
X108065000Y-70330000D03*
X108065000Y-74520000D03*
X108065000Y-78720000D03*
%TD*%
D33*
%TO.C,C90*%
X145037500Y-84580000D03*
X148162500Y-84580000D03*
%TD*%
D10*
%TO.C,D17*%
X216950000Y-125998750D03*
X216950000Y-124423750D03*
%TD*%
D23*
%TO.C,C87*%
X188190677Y-87246854D03*
X188190677Y-90371854D03*
%TD*%
D14*
%TO.C,R46*%
X96212500Y-110437500D03*
X94387500Y-110437500D03*
%TD*%
D45*
%TO.C,IC6*%
X198512500Y-68285000D03*
X198512500Y-69235000D03*
X198512500Y-70185000D03*
X201012500Y-70185000D03*
X201012500Y-68285000D03*
%TD*%
D19*
%TO.C,R60*%
X166843177Y-91139354D03*
X168668177Y-91139354D03*
%TD*%
D16*
%TO.C,C88*%
X145562500Y-53700000D03*
X147637500Y-53700000D03*
%TD*%
D23*
%TO.C,C60*%
X162885677Y-60534354D03*
X162885677Y-63659354D03*
%TD*%
%TO.C,C118*%
X182190677Y-87246854D03*
X182190677Y-90371854D03*
%TD*%
%TO.C,C53*%
X180585677Y-60496854D03*
X180585677Y-63621854D03*
%TD*%
D10*
%TO.C,D18*%
X218570000Y-125988750D03*
X218570000Y-124413750D03*
%TD*%
D17*
%TO.C,R39*%
X147300000Y-46212500D03*
X147300000Y-44387500D03*
%TD*%
D34*
%TO.C,C100*%
X101300000Y-113700000D03*
X101300000Y-111975000D03*
%TD*%
D37*
%TO.C,C78*%
X78848993Y-63482977D03*
X78848993Y-60357977D03*
%TD*%
D16*
%TO.C,C63*%
X97312500Y-87625000D03*
X99387500Y-87625000D03*
%TD*%
D28*
%TO.C,C89*%
X144937500Y-87080000D03*
X146662500Y-87080000D03*
%TD*%
D33*
%TO.C,C93*%
X145037500Y-92800000D03*
X148162500Y-92800000D03*
%TD*%
D15*
%TO.C,C57*%
X158695677Y-60596854D03*
X158695677Y-62321854D03*
%TD*%
D46*
%TO.C,Q3*%
X147400000Y-76900000D03*
X147400000Y-75000000D03*
X145525000Y-75950000D03*
%TD*%
D15*
%TO.C,C72*%
X76598993Y-65557977D03*
X76598993Y-67282977D03*
%TD*%
%TO.C,C113*%
X142340000Y-112187500D03*
X142340000Y-113912500D03*
%TD*%
D18*
%TO.C,F3*%
X139000000Y-92700000D03*
X141800000Y-92700000D03*
%TD*%
D14*
%TO.C,R50*%
X209712500Y-129981250D03*
X207887500Y-129981250D03*
%TD*%
D19*
%TO.C,R47*%
X207887500Y-119981250D03*
X209712500Y-119981250D03*
%TD*%
D47*
%TO.C,C109*%
X141550000Y-104800000D03*
X141550000Y-97500000D03*
%TD*%
D17*
%TO.C,R53*%
X145200000Y-72725000D03*
X145200000Y-70900000D03*
%TD*%
D28*
%TO.C,C94*%
X86037500Y-111937500D03*
X87762500Y-111937500D03*
%TD*%
D15*
%TO.C,C38*%
X204300000Y-68337500D03*
X204300000Y-70062500D03*
%TD*%
D22*
%TO.C,Q2*%
X111645000Y-78260000D03*
X113545000Y-78260000D03*
X112595000Y-76385000D03*
%TD*%
D28*
%TO.C,C91*%
X144937500Y-88700000D03*
X146662500Y-88700000D03*
%TD*%
D48*
%TO.C,C108*%
X142962500Y-129500000D03*
X141237500Y-129500000D03*
%TD*%
D15*
%TO.C,C39*%
X202700000Y-68337500D03*
X202700000Y-70062500D03*
%TD*%
%TO.C,C114*%
X143940000Y-112187500D03*
X143940000Y-113912500D03*
%TD*%
D34*
%TO.C,C76*%
X77848993Y-75895477D03*
X77848993Y-74170477D03*
%TD*%
D17*
%TO.C,R57*%
X220190000Y-129237500D03*
X220190000Y-127412500D03*
%TD*%
D21*
%TO.C,C59*%
X157948177Y-57759354D03*
X154823177Y-57759354D03*
%TD*%
D30*
%TO.C,R26*%
X210100000Y-125281250D03*
X210100000Y-127106250D03*
%TD*%
D22*
%TO.C,Q6*%
X166840677Y-89246854D03*
X168740677Y-89246854D03*
X167790677Y-87371854D03*
%TD*%
D24*
%TO.C,D4*%
X196750000Y-65800000D03*
X193450000Y-65800000D03*
%TD*%
D11*
%TO.C,D16*%
X199337500Y-56875000D03*
X197762500Y-56875000D03*
%TD*%
D15*
%TO.C,C58*%
X157085677Y-60596854D03*
X157085677Y-62321854D03*
%TD*%
D33*
%TO.C,C85*%
X145137500Y-56700000D03*
X148262500Y-56700000D03*
%TD*%
D30*
%TO.C,R35*%
X111845000Y-72522500D03*
X111845000Y-74347500D03*
%TD*%
D18*
%TO.C,F1*%
X154985677Y-51259354D03*
X157785677Y-51259354D03*
%TD*%
D28*
%TO.C,C36*%
X198537500Y-66600000D03*
X200262500Y-66600000D03*
%TD*%
D21*
%TO.C,C55*%
X157948177Y-54459354D03*
X154823177Y-54459354D03*
%TD*%
D24*
%TO.C,D13*%
X118390000Y-123950000D03*
X115090000Y-123950000D03*
%TD*%
D35*
%TO.C,C68*%
X94637500Y-83125000D03*
X92562500Y-83125000D03*
%TD*%
D30*
%TO.C,R55*%
X216925000Y-127462500D03*
X216925000Y-129287500D03*
%TD*%
D39*
%TO.C,Q5*%
X204250000Y-118281250D03*
X206150000Y-118281250D03*
X205200000Y-116081250D03*
%TD*%
D19*
%TO.C,R45*%
X89087500Y-108737500D03*
X90912500Y-108737500D03*
%TD*%
D24*
%TO.C,D9*%
X168090000Y-123750000D03*
X164790000Y-123750000D03*
%TD*%
%TO.C,D10*%
X168090000Y-126150000D03*
X164790000Y-126150000D03*
%TD*%
%TO.C,D12*%
X118390000Y-121550000D03*
X115090000Y-121550000D03*
%TD*%
D23*
%TO.C,C79*%
X78598993Y-77795477D03*
X78598993Y-80920477D03*
%TD*%
D24*
%TO.C,D3*%
X196750000Y-68200000D03*
X193450000Y-68200000D03*
%TD*%
D29*
%TO.C,C54*%
X183385677Y-60421854D03*
X183385677Y-62496854D03*
%TD*%
D11*
%TO.C,D7*%
X146987500Y-47800000D03*
X145412500Y-47800000D03*
%TD*%
M02*
