%TF.GenerationSoftware,KiCad,Pcbnew,9.0.4*%
%TF.CreationDate,2025-10-15T18:56:28+02:00*%
%TF.ProjectId,Robot WallA,526f626f-7420-4576-916c-6c412e6b6963,rev?*%
%TF.SameCoordinates,Original*%
%TF.FileFunction,Soldermask,Top*%
%TF.FilePolarity,Negative*%
%FSLAX46Y46*%
G04 Gerber Fmt 4.6, Leading zero omitted, Abs format (unit mm)*
G04 Created by KiCad (PCBNEW 9.0.4) date 2025-10-15 18:56:28*
%MOMM*%
%LPD*%
G01*
G04 APERTURE LIST*
G04 Aperture macros list*
%AMRoundRect*
0 Rectangle with rounded corners*
0 $1 Rounding radius*
0 $2 $3 $4 $5 $6 $7 $8 $9 X,Y pos of 4 corners*
0 Add a 4 corners polygon primitive as box body*
4,1,4,$2,$3,$4,$5,$6,$7,$8,$9,$2,$3,0*
0 Add four circle primitives for the rounded corners*
1,1,$1+$1,$2,$3*
1,1,$1+$1,$4,$5*
1,1,$1+$1,$6,$7*
1,1,$1+$1,$8,$9*
0 Add four rect primitives between the rounded corners*
20,1,$1+$1,$2,$3,$4,$5,0*
20,1,$1+$1,$4,$5,$6,$7,0*
20,1,$1+$1,$6,$7,$8,$9,0*
20,1,$1+$1,$8,$9,$2,$3,0*%
%AMFreePoly0*
4,1,23,0.500000,-0.750000,0.000000,-0.750000,0.000000,-0.745722,-0.065263,-0.745722,-0.191342,-0.711940,-0.304381,-0.646677,-0.396677,-0.554381,-0.461940,-0.441342,-0.495722,-0.315263,-0.495722,-0.250000,-0.500000,-0.250000,-0.500000,0.250000,-0.495722,0.250000,-0.495722,0.315263,-0.461940,0.441342,-0.396677,0.554381,-0.304381,0.646677,-0.191342,0.711940,-0.065263,0.745722,0.000000,0.745722,
0.000000,0.750000,0.500000,0.750000,0.500000,-0.750000,0.500000,-0.750000,$1*%
%AMFreePoly1*
4,1,23,0.000000,0.745722,0.065263,0.745722,0.191342,0.711940,0.304381,0.646677,0.396677,0.554381,0.461940,0.441342,0.495722,0.315263,0.495722,0.250000,0.500000,0.250000,0.500000,-0.250000,0.495722,-0.250000,0.495722,-0.315263,0.461940,-0.441342,0.396677,-0.554381,0.304381,-0.646677,0.191342,-0.711940,0.065263,-0.745722,0.000000,-0.745722,0.000000,-0.750000,-0.500000,-0.750000,
-0.500000,0.750000,0.000000,0.750000,0.000000,0.745722,0.000000,0.745722,$1*%
G04 Aperture macros list end*
%ADD10C,0.200000*%
%ADD11C,0.300000*%
%ADD12RoundRect,1.800000X1.800000X-1.800000X1.800000X1.800000X-1.800000X1.800000X-1.800000X-1.800000X0*%
%ADD13C,7.200000*%
%ADD14R,2.400000X1.600000*%
%ADD15R,1.950000X1.950000*%
%ADD16C,1.950000*%
%ADD17C,4.700000*%
%ADD18C,7.500000*%
%ADD19RoundRect,0.218750X0.218750X0.256250X-0.218750X0.256250X-0.218750X-0.256250X0.218750X-0.256250X0*%
%ADD20R,0.800000X0.600000*%
%ADD21R,0.700000X1.000000*%
%ADD22RoundRect,0.218750X0.256250X-0.218750X0.256250X0.218750X-0.256250X0.218750X-0.256250X-0.218750X0*%
%ADD23RoundRect,0.237500X0.250000X0.237500X-0.250000X0.237500X-0.250000X-0.237500X0.250000X-0.237500X0*%
%ADD24RoundRect,0.237500X-0.237500X0.300000X-0.237500X-0.300000X0.237500X-0.300000X0.237500X0.300000X0*%
%ADD25RoundRect,0.250000X-0.337500X-0.475000X0.337500X-0.475000X0.337500X0.475000X-0.337500X0.475000X0*%
%ADD26RoundRect,0.237500X0.237500X-0.250000X0.237500X0.250000X-0.237500X0.250000X-0.237500X-0.250000X0*%
%ADD27RoundRect,0.250000X-0.375000X-0.625000X0.375000X-0.625000X0.375000X0.625000X-0.375000X0.625000X0*%
%ADD28R,1.350000X1.350000*%
%ADD29C,1.350000*%
%ADD30R,1.275000X1.275000*%
%ADD31C,1.275000*%
%ADD32R,1.700000X1.700000*%
%ADD33C,1.700000*%
%ADD34FreePoly0,270.000000*%
%ADD35FreePoly1,270.000000*%
%ADD36RoundRect,0.237500X-0.250000X-0.237500X0.250000X-0.237500X0.250000X0.237500X-0.250000X0.237500X0*%
%ADD37R,0.450000X0.950000*%
%ADD38RoundRect,0.250000X0.412500X1.100000X-0.412500X1.100000X-0.412500X-1.100000X0.412500X-1.100000X0*%
%ADD39R,1.650000X1.650000*%
%ADD40C,1.650000*%
%ADD41FreePoly0,0.000000*%
%ADD42FreePoly1,0.000000*%
%ADD43RoundRect,0.150000X0.150000X-0.587500X0.150000X0.587500X-0.150000X0.587500X-0.150000X-0.587500X0*%
%ADD44RoundRect,0.250000X-1.100000X0.412500X-1.100000X-0.412500X1.100000X-0.412500X1.100000X0.412500X0*%
%ADD45RoundRect,0.225000X0.225000X0.375000X-0.225000X0.375000X-0.225000X-0.375000X0.225000X-0.375000X0*%
%ADD46R,1.200000X1.200000*%
%ADD47C,1.200000*%
%ADD48R,6.650000X2.350000*%
%ADD49R,0.600000X0.800000*%
%ADD50R,1.000000X0.700000*%
%ADD51FreePoly0,180.000000*%
%ADD52FreePoly1,180.000000*%
%ADD53RoundRect,0.237500X-0.300000X-0.237500X0.300000X-0.237500X0.300000X0.237500X-0.300000X0.237500X0*%
%ADD54C,1.000000*%
%ADD55RoundRect,0.250000X-0.475000X0.337500X-0.475000X-0.337500X0.475000X-0.337500X0.475000X0.337500X0*%
%ADD56C,2.000000*%
%ADD57RoundRect,0.237500X-0.237500X0.250000X-0.237500X-0.250000X0.237500X-0.250000X0.237500X0.250000X0*%
%ADD58RoundRect,0.127000X-1.143000X1.208000X-1.143000X-1.208000X1.143000X-1.208000X1.143000X1.208000X0*%
%ADD59RoundRect,0.076200X-0.558800X0.304800X-0.558800X-0.304800X0.558800X-0.304800X0.558800X0.304800X0*%
%ADD60RoundRect,0.250000X-0.412500X-1.100000X0.412500X-1.100000X0.412500X1.100000X-0.412500X1.100000X0*%
%ADD61RoundRect,0.237500X0.237500X-0.300000X0.237500X0.300000X-0.237500X0.300000X-0.237500X-0.300000X0*%
%ADD62RoundRect,0.250000X0.337500X0.475000X-0.337500X0.475000X-0.337500X-0.475000X0.337500X-0.475000X0*%
%ADD63R,3.180000X1.270000*%
%ADD64RoundRect,0.250000X1.100000X-0.412500X1.100000X0.412500X-1.100000X0.412500X-1.100000X-0.412500X0*%
%ADD65R,0.800000X1.750000*%
%ADD66C,1.665000*%
%ADD67RoundRect,0.625000X-0.625000X-0.625000X0.625000X-0.625000X0.625000X0.625000X-0.625000X0.625000X0*%
%ADD68C,2.500000*%
%ADD69R,0.600000X1.300000*%
%ADD70R,0.435000X1.475000*%
%ADD71R,2.350000X6.650000*%
%ADD72R,1.800000X1.800000*%
%ADD73C,1.800000*%
%ADD74R,3.780000X2.510000*%
%ADD75R,2.510000X3.780000*%
%ADD76C,2.510000*%
%ADD77R,1.500000X1.000000*%
%ADD78R,1.200000X0.600000*%
%ADD79RoundRect,0.150000X0.587500X0.150000X-0.587500X0.150000X-0.587500X-0.150000X0.587500X-0.150000X0*%
%ADD80R,1.000000X1.500000*%
%ADD81RoundRect,0.625000X0.625000X-0.625000X0.625000X0.625000X-0.625000X0.625000X-0.625000X-0.625000X0*%
%ADD82R,2.100000X4.250000*%
%ADD83FreePoly0,90.000000*%
%ADD84FreePoly1,90.000000*%
%ADD85RoundRect,0.237500X0.300000X0.237500X-0.300000X0.237500X-0.300000X-0.237500X0.300000X-0.237500X0*%
%ADD86R,3.900000X3.900000*%
%ADD87C,3.900000*%
%ADD88C,3.250000*%
%ADD89R,1.400000X1.400000*%
%ADD90C,1.400000*%
%ADD91C,2.400000*%
%ADD92C,0.650000*%
%ADD93R,1.000000X1.000000*%
G04 APERTURE END LIST*
D10*
X66650000Y-101430000D02*
X75650000Y-101430000D01*
X66650000Y-104430000D02*
X75650000Y-104430000D01*
X66650000Y-104430000D02*
X66650000Y-101430000D01*
X75650000Y-104430000D02*
X75650000Y-101430000D01*
D11*
X68590225Y-103730828D02*
X67733082Y-103730828D01*
X68161653Y-103730828D02*
X68161653Y-102230828D01*
X68161653Y-102230828D02*
X68018796Y-102445114D01*
X68018796Y-102445114D02*
X67875939Y-102587971D01*
X67875939Y-102587971D02*
X67733082Y-102659400D01*
%TO.C,JP15*%
G36*
X175440677Y-61159354D02*
G01*
X173940677Y-61159354D01*
X173940677Y-61459354D01*
X175440677Y-61459354D01*
X175440677Y-61159354D01*
G37*
%TO.C,JP16*%
G36*
X209268750Y-113100000D02*
G01*
X209568750Y-113100000D01*
X209568750Y-114600000D01*
X209268750Y-114600000D01*
X209268750Y-113100000D01*
G37*
%TO.C,JP18*%
G36*
X114500000Y-67730000D02*
G01*
X114200000Y-67730000D01*
X114200000Y-66230000D01*
X114500000Y-66230000D01*
X114500000Y-67730000D01*
G37*
%TO.C,JP17*%
G36*
X205668750Y-113100000D02*
G01*
X205968750Y-113100000D01*
X205968750Y-114600000D01*
X205668750Y-114600000D01*
X205668750Y-113100000D01*
G37*
%TO.C,JP13*%
G36*
X177140677Y-87809354D02*
G01*
X175640677Y-87809354D01*
X175640677Y-88109354D01*
X177140677Y-88109354D01*
X177140677Y-87809354D01*
G37*
%TO.C,JP9*%
G36*
X124050000Y-131850000D02*
G01*
X125550000Y-131850000D01*
X125550000Y-131550000D01*
X124050000Y-131550000D01*
X124050000Y-131850000D01*
G37*
%TO.C,JP6*%
G36*
X90800000Y-103587500D02*
G01*
X89200000Y-103587500D01*
X89200000Y-102087500D01*
X90800000Y-102087500D01*
X90800000Y-103587500D01*
G37*
%TO.C,JP12*%
G36*
X178340677Y-88109354D02*
G01*
X179840677Y-88109354D01*
X179840677Y-87809354D01*
X178340677Y-87809354D01*
X178340677Y-88109354D01*
G37*
%TO.C,JP10*%
G36*
X159150000Y-132050000D02*
G01*
X158850000Y-132050000D01*
X158850000Y-130550000D01*
X159150000Y-130550000D01*
X159150000Y-132050000D01*
G37*
%TO.C,JP8*%
G36*
X100500000Y-103587500D02*
G01*
X98900000Y-103587500D01*
X98900000Y-102087500D01*
X100500000Y-102087500D01*
X100500000Y-103587500D01*
G37*
%TO.C,JP19*%
G36*
X114180000Y-63580000D02*
G01*
X114480000Y-63580000D01*
X114480000Y-65080000D01*
X114180000Y-65080000D01*
X114180000Y-63580000D01*
G37*
%TO.C,JP14*%
G36*
X176540677Y-61459354D02*
G01*
X178040677Y-61459354D01*
X178040677Y-61159354D01*
X176540677Y-61159354D01*
X176540677Y-61459354D01*
G37*
%TO.C,JP7*%
G36*
X95600000Y-103587500D02*
G01*
X94000000Y-103587500D01*
X94000000Y-102087500D01*
X95600000Y-102087500D01*
X95600000Y-103587500D01*
G37*
%TD*%
D12*
%TO.C,J8*%
X66400000Y-94899998D03*
D13*
X66400000Y-84000000D03*
D14*
X57000000Y-98899998D03*
X57000000Y-79999998D03*
%TD*%
D15*
%TO.C,J18*%
X220400000Y-80600000D03*
D16*
X220400000Y-77100000D03*
X220400000Y-73600000D03*
X220400000Y-70100000D03*
%TD*%
D17*
%TO.C,H4*%
X220210000Y-134480000D03*
D18*
X220210000Y-134480000D03*
%TD*%
D19*
%TO.C,D6*%
X99237500Y-94275000D03*
X97662500Y-94275000D03*
%TD*%
D20*
%TO.C,RV2*%
X171935677Y-64109354D03*
D21*
X169585677Y-63459354D03*
D20*
X171935677Y-62809354D03*
%TD*%
D22*
%TO.C,D20*%
X221800000Y-125978750D03*
X221800000Y-124403750D03*
%TD*%
D23*
%TO.C,R36*%
X108007500Y-82220477D03*
X106182500Y-82220477D03*
%TD*%
D24*
%TO.C,C73*%
X75098993Y-65557977D03*
X75098993Y-67282977D03*
%TD*%
D23*
%TO.C,R43*%
X87412500Y-108737500D03*
X85587500Y-108737500D03*
%TD*%
D22*
%TO.C,D19*%
X220190000Y-125988750D03*
X220190000Y-124413750D03*
%TD*%
D25*
%TO.C,C65*%
X97312500Y-83115000D03*
X99387500Y-83115000D03*
%TD*%
D26*
%TO.C,R58*%
X221790000Y-129237500D03*
X221790000Y-127412500D03*
%TD*%
D27*
%TO.C,F2*%
X61658993Y-73420477D03*
X64458993Y-73420477D03*
%TD*%
D28*
%TO.C,J10*%
X213100000Y-41700000D03*
D29*
X211100000Y-41700000D03*
%TD*%
D16*
%TO.C,J16*%
X85625000Y-136480000D03*
X89125000Y-136480000D03*
%TD*%
D27*
%TO.C,F4*%
X156253177Y-77909354D03*
X159053177Y-77909354D03*
%TD*%
D30*
%TO.C,C86*%
X192590677Y-83809354D03*
D31*
X192590677Y-80309354D03*
%TD*%
D24*
%TO.C,C123*%
X158190677Y-87184354D03*
X158190677Y-88909354D03*
%TD*%
D32*
%TO.C,J23*%
X138940000Y-109450000D03*
D33*
X141480000Y-109450000D03*
X144020000Y-109450000D03*
%TD*%
D22*
%TO.C,D21*%
X223430000Y-125968750D03*
X223430000Y-124393750D03*
%TD*%
D34*
%TO.C,JP15*%
X174690677Y-60659354D03*
D35*
X174690677Y-61959354D03*
%TD*%
D36*
%TO.C,R49*%
X204287500Y-119981250D03*
X206112500Y-119981250D03*
%TD*%
D37*
%TO.C,IC9*%
X206525000Y-128456250D03*
X207175000Y-128456250D03*
X207825000Y-128456250D03*
X208475000Y-128456250D03*
X208475000Y-124506250D03*
X207825000Y-124506250D03*
X207175000Y-124506250D03*
X206525000Y-124506250D03*
%TD*%
D38*
%TO.C,C120*%
X159115677Y-81009354D03*
X155990677Y-81009354D03*
%TD*%
D39*
%TO.C,J28*%
X221530000Y-112959998D03*
D40*
X221530000Y-110419998D03*
X221530000Y-107879998D03*
%TD*%
D26*
%TO.C,R56*%
X218570000Y-129237500D03*
X218570000Y-127412500D03*
%TD*%
D24*
%TO.C,C112*%
X140740000Y-112187500D03*
X140740000Y-113912500D03*
%TD*%
D32*
%TO.C,J12*%
X153375000Y-70950000D03*
D33*
X155915000Y-70950000D03*
%TD*%
D39*
%TO.C,J26*%
X221530000Y-104099998D03*
D40*
X221530000Y-101559998D03*
X221530000Y-99019998D03*
%TD*%
D23*
%TO.C,R44*%
X94312500Y-108737500D03*
X92487500Y-108737500D03*
%TD*%
D26*
%TO.C,R41*%
X149300000Y-76912500D03*
X149300000Y-75087500D03*
%TD*%
D20*
%TO.C,RV3*%
X173490677Y-90559354D03*
D21*
X171140677Y-89909354D03*
D20*
X173490677Y-89259354D03*
%TD*%
D19*
%TO.C,D5*%
X201112500Y-83550000D03*
X199537500Y-83550000D03*
%TD*%
D38*
%TO.C,C124*%
X159115677Y-84309354D03*
X155990677Y-84309354D03*
%TD*%
D41*
%TO.C,JP16*%
X208768750Y-113850000D03*
D42*
X210068750Y-113850000D03*
%TD*%
D20*
%TO.C,RV1*%
X114980000Y-61360000D03*
D21*
X112630000Y-60710000D03*
D20*
X114980000Y-60060000D03*
%TD*%
D43*
%TO.C,Q1*%
X165343177Y-62679354D03*
X167243177Y-62679354D03*
X166293177Y-60804354D03*
%TD*%
D44*
%TO.C,C125*%
X163890677Y-87184354D03*
X163890677Y-90309354D03*
%TD*%
D45*
%TO.C,D15*%
X118390000Y-119150000D03*
X115090000Y-119150000D03*
%TD*%
D36*
%TO.C,R38*%
X111682500Y-80135000D03*
X113507500Y-80135000D03*
%TD*%
D17*
%TO.C,H1*%
X60210000Y-44480000D03*
D18*
X60210000Y-44480000D03*
%TD*%
D46*
%TO.C,J19*%
X183401659Y-136476843D03*
D47*
X185901659Y-136476843D03*
X188401659Y-136476843D03*
%TD*%
D32*
%TO.C,J7*%
X58900000Y-76000000D03*
D33*
X58900000Y-73460000D03*
%TD*%
D26*
%TO.C,R59*%
X223430000Y-129223750D03*
X223430000Y-127398750D03*
%TD*%
D24*
%TO.C,C121*%
X161390677Y-87184354D03*
X161390677Y-88909354D03*
%TD*%
D48*
%TO.C,C62*%
X87775000Y-91100000D03*
X74775000Y-91100000D03*
%TD*%
D28*
%TO.C,J9*%
X190300000Y-41750000D03*
D29*
X188300000Y-41750000D03*
%TD*%
D49*
%TO.C,RV4*%
X147650000Y-72662500D03*
D50*
X148300000Y-70312500D03*
D49*
X148950000Y-72662500D03*
%TD*%
D51*
%TO.C,JP18*%
X115000000Y-66980000D03*
D52*
X113700000Y-66980000D03*
%TD*%
D44*
%TO.C,C80*%
X75348993Y-77795477D03*
X75348993Y-80920477D03*
%TD*%
D36*
%TO.C,R33*%
X100837500Y-94250000D03*
X102662500Y-94250000D03*
%TD*%
D25*
%TO.C,C66*%
X97312500Y-85375000D03*
X99387500Y-85375000D03*
%TD*%
D23*
%TO.C,R42*%
X87412500Y-110337500D03*
X85587500Y-110337500D03*
%TD*%
D53*
%TO.C,C92*%
X144937500Y-90300000D03*
X146662500Y-90300000D03*
%TD*%
D44*
%TO.C,C52*%
X186185677Y-60496854D03*
X186185677Y-63621854D03*
%TD*%
D54*
%TO.C,TP2*%
X207000000Y-122600000D03*
%TD*%
D45*
%TO.C,D8*%
X168090000Y-118950000D03*
X164790000Y-118950000D03*
%TD*%
D16*
%TO.C,J31*%
X145400000Y-136480000D03*
X148900000Y-136480000D03*
%TD*%
D55*
%TO.C,C119*%
X185190677Y-87271854D03*
X185190677Y-89346854D03*
%TD*%
D39*
%TO.C,J24*%
X221530000Y-95259998D03*
D40*
X221530000Y-92719998D03*
X221530000Y-90179998D03*
%TD*%
D32*
%TO.C,J11*%
X133460000Y-92700000D03*
D33*
X136000000Y-92700000D03*
%TD*%
D24*
%TO.C,C122*%
X159800677Y-87184354D03*
X159800677Y-88909354D03*
%TD*%
D56*
%TO.C,TP5*%
X196490677Y-59309354D03*
%TD*%
D57*
%TO.C,R48*%
X204900000Y-127868750D03*
X204900000Y-129693750D03*
%TD*%
D54*
%TO.C,TP1*%
X209100000Y-122650000D03*
%TD*%
D53*
%TO.C,C37*%
X198437500Y-71900000D03*
X200162500Y-71900000D03*
%TD*%
D26*
%TO.C,R34*%
X111845000Y-67510000D03*
X111845000Y-65685000D03*
%TD*%
D46*
%TO.C,J21*%
X205001659Y-136476843D03*
D47*
X207501659Y-136476843D03*
X210001659Y-136476843D03*
%TD*%
D58*
%TO.C,D22*%
X196600000Y-52974000D03*
D59*
X196600000Y-55325000D03*
%TD*%
D60*
%TO.C,C117*%
X145037500Y-81200000D03*
X148162500Y-81200000D03*
%TD*%
D61*
%TO.C,C75*%
X76348993Y-75895477D03*
X76348993Y-74170477D03*
%TD*%
D23*
%TO.C,R52*%
X148482500Y-129890000D03*
X146657500Y-129890000D03*
%TD*%
D24*
%TO.C,C111*%
X139140000Y-112187500D03*
X139140000Y-113912500D03*
%TD*%
D62*
%TO.C,C64*%
X94637500Y-87625000D03*
X92562500Y-87625000D03*
%TD*%
D63*
%TO.C,J6*%
X182340000Y-100040000D03*
X182340000Y-102580000D03*
X182340000Y-105120000D03*
X182340000Y-107660000D03*
X182340000Y-110200000D03*
X182340000Y-112740000D03*
X182340000Y-115280000D03*
X182340000Y-117820000D03*
X187800000Y-100040000D03*
X187800000Y-102580000D03*
X187800000Y-105120000D03*
X187800000Y-107660000D03*
X187800000Y-110200000D03*
X187800000Y-112740000D03*
X187800000Y-115280000D03*
X187800000Y-117820000D03*
%TD*%
D64*
%TO.C,C81*%
X73848993Y-75822500D03*
X73848993Y-72697500D03*
%TD*%
D24*
%TO.C,C56*%
X160385677Y-60596854D03*
X160385677Y-62321854D03*
%TD*%
D64*
%TO.C,C77*%
X75598993Y-63482977D03*
X75598993Y-60357977D03*
%TD*%
D16*
%TO.C,J30*%
X134250000Y-136480000D03*
X137750000Y-136480000D03*
%TD*%
D24*
%TO.C,C70*%
X79598993Y-65557977D03*
X79598993Y-67282977D03*
%TD*%
D45*
%TO.C,D14*%
X118390000Y-126350000D03*
X115090000Y-126350000D03*
%TD*%
D36*
%TO.C,R51*%
X134327500Y-129910000D03*
X136152500Y-129910000D03*
%TD*%
%TO.C,R30*%
X202712500Y-83525000D03*
X204537500Y-83525000D03*
%TD*%
D56*
%TO.C,TP6*%
X198190677Y-86009354D03*
%TD*%
D60*
%TO.C,C83*%
X145100000Y-50800000D03*
X148225000Y-50800000D03*
%TD*%
D65*
%TO.C,IC2*%
X193705000Y-131675000D03*
X196245000Y-131675000D03*
X198785000Y-131675000D03*
X201325000Y-131675000D03*
X201325000Y-122475000D03*
X198785000Y-122475000D03*
X196245000Y-122475000D03*
X193705000Y-122475000D03*
%TD*%
D66*
%TO.C,U5*%
X119820000Y-99757500D03*
X114740000Y-99757500D03*
%TD*%
D15*
%TO.C,J17*%
X220400000Y-62900000D03*
D16*
X220400000Y-59400000D03*
X220400000Y-55900000D03*
X220400000Y-52400000D03*
%TD*%
D41*
%TO.C,JP17*%
X205168750Y-113850000D03*
D42*
X206468750Y-113850000D03*
%TD*%
D34*
%TO.C,JP13*%
X176390677Y-87309354D03*
D35*
X176390677Y-88609354D03*
%TD*%
D24*
%TO.C,C105*%
X204900000Y-124518750D03*
X204900000Y-126243750D03*
%TD*%
D61*
%TO.C,C74*%
X79348993Y-75895477D03*
X79348993Y-74170477D03*
%TD*%
D32*
%TO.C,J27*%
X216730000Y-98959998D03*
D33*
X216730000Y-101499998D03*
X216730000Y-104039998D03*
%TD*%
D62*
%TO.C,C67*%
X94637500Y-85375000D03*
X92562500Y-85375000D03*
%TD*%
D67*
%TO.C,U10*%
X161170677Y-44709354D03*
D68*
X161170677Y-57409354D03*
X170690677Y-57409354D03*
X173870677Y-57409354D03*
X177050677Y-57409354D03*
X183400677Y-57409354D03*
X183400677Y-44709354D03*
%TD*%
D36*
%TO.C,R32*%
X170073177Y-60459354D03*
X171898177Y-60459354D03*
%TD*%
D69*
%TO.C,Q4*%
X207850000Y-118281250D03*
X209750000Y-118281250D03*
X208800000Y-116081250D03*
%TD*%
D24*
%TO.C,C71*%
X78098993Y-65557977D03*
X78098993Y-67282977D03*
%TD*%
D36*
%TO.C,R54*%
X172278177Y-86909354D03*
X174103177Y-86909354D03*
%TD*%
D70*
%TO.C,IC8*%
X86482000Y-121325500D03*
X87118000Y-121325500D03*
X87752000Y-121325500D03*
X88388000Y-121325500D03*
X89022000Y-121325500D03*
X89658000Y-121325500D03*
X90292000Y-121325500D03*
X90928000Y-121325500D03*
X91562000Y-121325500D03*
X92198000Y-121325500D03*
X92832000Y-121325500D03*
X93468000Y-121325500D03*
X94102000Y-121325500D03*
X94738000Y-121325500D03*
X95372000Y-121325500D03*
X96008000Y-121325500D03*
X96642000Y-121325500D03*
X97278000Y-121325500D03*
X97912000Y-121325500D03*
X98548000Y-121325500D03*
X99182000Y-121325500D03*
X99818000Y-121325500D03*
X99818000Y-113749500D03*
X99182000Y-113749500D03*
X98548000Y-113749500D03*
X97912000Y-113749500D03*
X97278000Y-113749500D03*
X96642000Y-113749500D03*
X96008000Y-113749500D03*
X95372000Y-113749500D03*
X94738000Y-113749500D03*
X94102000Y-113749500D03*
X93468000Y-113749500D03*
X92832000Y-113749500D03*
X92198000Y-113749500D03*
X91562000Y-113749500D03*
X90928000Y-113749500D03*
X90292000Y-113749500D03*
X89658000Y-113749500D03*
X89022000Y-113749500D03*
X88388000Y-113749500D03*
X87752000Y-113749500D03*
X87118000Y-113749500D03*
X86482000Y-113749500D03*
%TD*%
D32*
%TO.C,J32*%
X216730000Y-116619998D03*
D33*
X216730000Y-119159998D03*
X216730000Y-121699998D03*
%TD*%
D36*
%TO.C,R31*%
X201487500Y-56875000D03*
X203312500Y-56875000D03*
%TD*%
D61*
%TO.C,C82*%
X111845000Y-70872500D03*
X111845000Y-69147500D03*
%TD*%
D57*
%TO.C,R37*%
X113595000Y-69097500D03*
X113595000Y-70922500D03*
%TD*%
D30*
%TO.C,C51*%
X190785677Y-57459354D03*
D31*
X190785677Y-53959354D03*
%TD*%
D32*
%TO.C,J29*%
X216730000Y-107819998D03*
D33*
X216730000Y-110359998D03*
X216730000Y-112899998D03*
%TD*%
D71*
%TO.C,C69*%
X64598993Y-67670477D03*
X64598993Y-54670477D03*
%TD*%
D72*
%TO.C,U6*%
X132750000Y-126480000D03*
D73*
X134020000Y-121400000D03*
X135290000Y-126480000D03*
X136560000Y-121400000D03*
X137830000Y-126480000D03*
X139100000Y-121400000D03*
X140370000Y-126480000D03*
X141640000Y-121400000D03*
X142910000Y-126480000D03*
X144180000Y-121400000D03*
X145450000Y-126480000D03*
X146720000Y-121400000D03*
X147990000Y-126480000D03*
X149260000Y-121400000D03*
X150530000Y-126480000D03*
%TD*%
D63*
%TO.C,J13*%
X193265000Y-100040000D03*
X193265000Y-102580000D03*
X193265000Y-105120000D03*
X193265000Y-107660000D03*
X193265000Y-110200000D03*
X193265000Y-112740000D03*
X193265000Y-115280000D03*
X193265000Y-117820000D03*
X198725000Y-100040000D03*
X198725000Y-102580000D03*
X198725000Y-105120000D03*
X198725000Y-107660000D03*
X198725000Y-110200000D03*
X198725000Y-112740000D03*
X198725000Y-115280000D03*
X198725000Y-117820000D03*
%TD*%
D36*
%TO.C,R40*%
X165485677Y-64559354D03*
X167310677Y-64559354D03*
%TD*%
D45*
%TO.C,D11*%
X168090000Y-121350000D03*
X164790000Y-121350000D03*
%TD*%
D74*
%TO.C,IC7*%
X99415000Y-78720000D03*
X91825000Y-78720000D03*
D75*
X83175000Y-77100000D03*
X83175000Y-71920000D03*
X83175000Y-64530000D03*
X83175000Y-59350000D03*
D74*
X102595000Y-57760000D03*
D76*
X108065000Y-57760000D03*
X108065000Y-61950000D03*
X108065000Y-66140000D03*
X108065000Y-70330000D03*
X108065000Y-74520000D03*
X108065000Y-78720000D03*
%TD*%
D56*
%TO.C,TP4*%
X144800000Y-41800000D03*
%TD*%
D60*
%TO.C,C90*%
X145037500Y-84580000D03*
X148162500Y-84580000D03*
%TD*%
D22*
%TO.C,D17*%
X216950000Y-125998750D03*
X216950000Y-124423750D03*
%TD*%
D44*
%TO.C,C87*%
X188190677Y-87246854D03*
X188190677Y-90371854D03*
%TD*%
D17*
%TO.C,H3*%
X220210000Y-44480000D03*
D18*
X220210000Y-44480000D03*
%TD*%
D23*
%TO.C,R46*%
X96212500Y-110437500D03*
X94387500Y-110437500D03*
%TD*%
D77*
%TO.C,JP9*%
X124800000Y-132350000D03*
X124800000Y-131050000D03*
%TD*%
D78*
%TO.C,IC6*%
X198512500Y-68285000D03*
X198512500Y-69235000D03*
X198512500Y-70185000D03*
X201012500Y-70185000D03*
X201012500Y-68285000D03*
%TD*%
D36*
%TO.C,R60*%
X166843177Y-91139354D03*
X168668177Y-91139354D03*
%TD*%
D25*
%TO.C,C88*%
X145562500Y-53700000D03*
X147637500Y-53700000D03*
%TD*%
D56*
%TO.C,TP7*%
X206650000Y-68400000D03*
%TD*%
D44*
%TO.C,C60*%
X162885677Y-60534354D03*
X162885677Y-63659354D03*
%TD*%
%TO.C,C118*%
X182190677Y-87246854D03*
X182190677Y-90371854D03*
%TD*%
%TO.C,C53*%
X180585677Y-60496854D03*
X180585677Y-63621854D03*
%TD*%
D22*
%TO.C,D18*%
X218570000Y-125988750D03*
X218570000Y-124413750D03*
%TD*%
D26*
%TO.C,R39*%
X147300000Y-46212500D03*
X147300000Y-44387500D03*
%TD*%
D61*
%TO.C,C100*%
X101300000Y-113700000D03*
X101300000Y-111975000D03*
%TD*%
D64*
%TO.C,C78*%
X78848993Y-63482977D03*
X78848993Y-60357977D03*
%TD*%
D25*
%TO.C,C63*%
X97312500Y-87625000D03*
X99387500Y-87625000D03*
%TD*%
D53*
%TO.C,C89*%
X144937500Y-87080000D03*
X146662500Y-87080000D03*
%TD*%
D60*
%TO.C,C93*%
X145037500Y-92800000D03*
X148162500Y-92800000D03*
%TD*%
D24*
%TO.C,C57*%
X158695677Y-60596854D03*
X158695677Y-62321854D03*
%TD*%
D79*
%TO.C,Q3*%
X147400000Y-76900000D03*
X147400000Y-75000000D03*
X145525000Y-75950000D03*
%TD*%
D24*
%TO.C,C72*%
X76598993Y-65557977D03*
X76598993Y-67282977D03*
%TD*%
%TO.C,C113*%
X142340000Y-112187500D03*
X142340000Y-113912500D03*
%TD*%
D80*
%TO.C,JP6*%
X91300000Y-102837500D03*
X90000000Y-102837500D03*
X88700000Y-102837500D03*
%TD*%
D27*
%TO.C,F3*%
X139000000Y-92700000D03*
X141800000Y-92700000D03*
%TD*%
D23*
%TO.C,R50*%
X209712500Y-129981250D03*
X207887500Y-129981250D03*
%TD*%
D81*
%TO.C,U8*%
X122775000Y-88665000D03*
D68*
X141815000Y-88665000D03*
X141825000Y-75965000D03*
X141815000Y-72785000D03*
X141825000Y-69605000D03*
X141825000Y-53725000D03*
X122775000Y-53725000D03*
%TD*%
D56*
%TO.C,TP3*%
X95800000Y-90750000D03*
%TD*%
D36*
%TO.C,R47*%
X207887500Y-119981250D03*
X209712500Y-119981250D03*
%TD*%
D82*
%TO.C,C109*%
X141550000Y-104800000D03*
X141550000Y-97500000D03*
%TD*%
D26*
%TO.C,R53*%
X145200000Y-72725000D03*
X145200000Y-70900000D03*
%TD*%
D83*
%TO.C,JP12*%
X179090677Y-88609354D03*
D84*
X179090677Y-87309354D03*
%TD*%
D53*
%TO.C,C94*%
X86037500Y-111937500D03*
X87762500Y-111937500D03*
%TD*%
D24*
%TO.C,C38*%
X204300000Y-68337500D03*
X204300000Y-70062500D03*
%TD*%
D32*
%TO.C,J34*%
X102800000Y-48600000D03*
D33*
X105340000Y-48600000D03*
X107880000Y-48600000D03*
%TD*%
D43*
%TO.C,Q2*%
X111645000Y-78260000D03*
X113545000Y-78260000D03*
X112595000Y-76385000D03*
%TD*%
D53*
%TO.C,C91*%
X144937500Y-88700000D03*
X146662500Y-88700000D03*
%TD*%
D85*
%TO.C,C108*%
X142962500Y-129500000D03*
X141237500Y-129500000D03*
%TD*%
D24*
%TO.C,C39*%
X202700000Y-68337500D03*
X202700000Y-70062500D03*
%TD*%
%TO.C,C114*%
X143940000Y-112187500D03*
X143940000Y-113912500D03*
%TD*%
D61*
%TO.C,C76*%
X77848993Y-75895477D03*
X77848993Y-74170477D03*
%TD*%
D26*
%TO.C,R57*%
X220190000Y-129237500D03*
X220190000Y-127412500D03*
%TD*%
D80*
%TO.C,JP10*%
X159650000Y-131300000D03*
X158350000Y-131300000D03*
%TD*%
D67*
%TO.C,U9*%
X162870677Y-71209354D03*
D68*
X162870677Y-83909354D03*
X172390677Y-83909354D03*
X175570677Y-83909354D03*
X178750677Y-83909354D03*
X185100677Y-83909354D03*
X185100677Y-71209354D03*
%TD*%
D32*
%TO.C,J5*%
X193925000Y-49025000D03*
D33*
X191385000Y-49025000D03*
%TD*%
D38*
%TO.C,C59*%
X157948177Y-57759354D03*
X154823177Y-57759354D03*
%TD*%
D57*
%TO.C,R26*%
X210100000Y-125281250D03*
X210100000Y-127106250D03*
%TD*%
D32*
%TO.C,J25*%
X216730000Y-90159998D03*
D33*
X216730000Y-92699998D03*
X216730000Y-95239998D03*
%TD*%
D43*
%TO.C,Q6*%
X166840677Y-89246854D03*
X168740677Y-89246854D03*
X167790677Y-87371854D03*
%TD*%
D46*
%TO.C,J20*%
X172601659Y-136476843D03*
D47*
X175101659Y-136476843D03*
X177601659Y-136476843D03*
%TD*%
D45*
%TO.C,D4*%
X196750000Y-65800000D03*
X193450000Y-65800000D03*
%TD*%
D80*
%TO.C,JP8*%
X101000000Y-102837500D03*
X99700000Y-102837500D03*
X98400000Y-102837500D03*
%TD*%
D19*
%TO.C,D16*%
X199337500Y-56875000D03*
X197762500Y-56875000D03*
%TD*%
D24*
%TO.C,C58*%
X157085677Y-60596854D03*
X157085677Y-62321854D03*
%TD*%
D60*
%TO.C,C85*%
X145137500Y-56700000D03*
X148262500Y-56700000D03*
%TD*%
D57*
%TO.C,R35*%
X111845000Y-72522500D03*
X111845000Y-74347500D03*
%TD*%
D27*
%TO.C,F1*%
X154985677Y-51259354D03*
X157785677Y-51259354D03*
%TD*%
D53*
%TO.C,C36*%
X198537500Y-66600000D03*
X200262500Y-66600000D03*
%TD*%
D38*
%TO.C,C55*%
X157948177Y-54459354D03*
X154823177Y-54459354D03*
%TD*%
D32*
%TO.C,J39*%
X83035000Y-49700000D03*
D33*
X85575000Y-49700000D03*
X88115000Y-49700000D03*
%TD*%
D41*
%TO.C,JP19*%
X113680000Y-64330000D03*
D42*
X114980000Y-64330000D03*
%TD*%
D45*
%TO.C,D13*%
X118390000Y-123950000D03*
X115090000Y-123950000D03*
%TD*%
D62*
%TO.C,C68*%
X94637500Y-83125000D03*
X92562500Y-83125000D03*
%TD*%
D57*
%TO.C,R55*%
X216925000Y-127462500D03*
X216925000Y-129287500D03*
%TD*%
D69*
%TO.C,Q5*%
X204250000Y-118281250D03*
X206150000Y-118281250D03*
X205200000Y-116081250D03*
%TD*%
D30*
%TO.C,C84*%
X153600000Y-42400000D03*
D31*
X153600000Y-47400000D03*
%TD*%
D66*
%TO.C,U4*%
X71560000Y-135317500D03*
X66480000Y-135317500D03*
%TD*%
D36*
%TO.C,R45*%
X89087500Y-108737500D03*
X90912500Y-108737500D03*
%TD*%
D83*
%TO.C,JP14*%
X177290677Y-61959354D03*
D84*
X177290677Y-60659354D03*
%TD*%
D66*
%TO.C,U3*%
X77815000Y-41590000D03*
X77815000Y-46670000D03*
%TD*%
D86*
%TO.C,H5*%
X154340000Y-116050000D03*
D87*
X128940000Y-116050000D03*
%TD*%
D45*
%TO.C,D9*%
X168090000Y-123750000D03*
X164790000Y-123750000D03*
%TD*%
%TO.C,D10*%
X168090000Y-126150000D03*
X164790000Y-126150000D03*
%TD*%
%TO.C,D12*%
X118390000Y-121550000D03*
X115090000Y-121550000D03*
%TD*%
D44*
%TO.C,C79*%
X78598993Y-77795477D03*
X78598993Y-80920477D03*
%TD*%
D17*
%TO.C,H2*%
X60210000Y-134480000D03*
D18*
X60210000Y-134480000D03*
%TD*%
D16*
%TO.C,J15*%
X96775000Y-136480000D03*
X100275000Y-136480000D03*
%TD*%
D45*
%TO.C,D3*%
X196750000Y-68200000D03*
X193450000Y-68200000D03*
%TD*%
D66*
%TO.C,U2*%
X113375000Y-89850000D03*
X113375000Y-94930000D03*
%TD*%
D55*
%TO.C,C54*%
X183385677Y-60421854D03*
X183385677Y-62496854D03*
%TD*%
D46*
%TO.C,J22*%
X194201659Y-136476843D03*
D47*
X196701659Y-136476843D03*
X199201659Y-136476843D03*
%TD*%
D80*
%TO.C,JP7*%
X96100000Y-102837500D03*
X94800000Y-102837500D03*
X93500000Y-102837500D03*
%TD*%
D39*
%TO.C,J33*%
X221530000Y-121659998D03*
D40*
X221530000Y-119119998D03*
X221530000Y-116579998D03*
%TD*%
D19*
%TO.C,D7*%
X146987500Y-47800000D03*
X145412500Y-47800000D03*
%TD*%
D88*
%TO.C,J3*%
X125740000Y-41860000D03*
X138440000Y-41860000D03*
D89*
X135660000Y-44400000D03*
D90*
X134640000Y-46180000D03*
X133620000Y-44400000D03*
X132600000Y-46180000D03*
X131580000Y-44400000D03*
X130560000Y-46180000D03*
X129540000Y-44400000D03*
X128520000Y-46180000D03*
X138950000Y-51000000D03*
X136660000Y-51000000D03*
X127520000Y-51000000D03*
X125230000Y-51000000D03*
D91*
X140210000Y-45290000D03*
X123960000Y-45290000D03*
%TD*%
D92*
%TO.C,J2*%
X170028000Y-43924000D03*
X176028000Y-43924000D03*
%TD*%
D93*
%TO.C,J1*%
X207807500Y-96630000D03*
D54*
X206537500Y-96630000D03*
X207807500Y-97900000D03*
X206537500Y-97900000D03*
X207807500Y-99170000D03*
X206537500Y-99170000D03*
X207807500Y-100440000D03*
X206537500Y-100440000D03*
X207807500Y-101710000D03*
X206537500Y-101710000D03*
%TD*%
M02*
